<svg viewBox="0 0 227 81" fill="none" xmlns="http://www.w3.org/2000/svg">
<path d="M56.2636 60.6116H23.2681C19.3771 60.6116 16.2643 57.4507 16.2643 53.4994C16.2643 49.5482 19.3771 46.3873 23.2681 46.3873H51.5166C53.8512 46.3873 55.9523 44.6487 56.4193 42.357L63.6565 5.6897H79.9986C81.2437 5.6897 82.2554 6.71701 82.2554 7.98141C82.2554 9.2458 81.2437 10.2731 79.9986 10.2731H67.3918L60.855 43.2263C59.999 47.7307 56.0302 51.0497 51.4388 51.0497H23.2681C21.9451 51.0497 20.8557 52.156 20.8557 53.4994C20.8557 54.8429 21.9451 55.9492 23.2681 55.9492H56.2636C57.5087 55.9492 58.5204 56.9765 58.5204 58.2409C58.5204 59.5053 57.5087 60.6116 56.2636 60.6116Z" fill="#1C91D3"/>
<path d="M26.77 75.3891C30.2513 75.3891 33.0734 72.5233 33.0734 68.9881C33.0734 65.453 30.2513 62.5872 26.77 62.5872C23.2887 62.5872 20.4666 65.453 20.4666 68.9881C20.4666 72.5233 23.2887 75.3891 26.77 75.3891Z" fill="#1C91D3"/>
<path d="M48.326 75.3891C51.8073 75.3891 54.6294 72.5233 54.6294 68.9881C54.6294 65.453 51.8073 62.5872 48.326 62.5872C44.8448 62.5872 42.0226 65.453 42.0226 68.9881C42.0226 72.5233 44.8448 75.3891 48.326 75.3891Z" fill="#1C91D3"/>
<path d="M59.532 41.4878H21.167C15.6418 41.4878 10.7391 37.6946 9.26055 32.321L4.59137 15.2517H63.7343C64.8238 15.2517 65.6798 16.121 65.6798 17.2273C65.6798 18.3337 64.8238 19.2029 63.7343 19.2029H9.72747L12.9959 31.2146C14.0075 34.9288 17.3538 37.4576 21.0891 37.4576H59.4542C60.5437 37.4576 61.3997 38.3268 61.3997 39.4332C61.4775 40.5395 60.5437 41.4878 59.532 41.4878Z" fill="#1C91D3"/>
<path d="M54.3181 24.4186H9.18271C8.63797 24.4186 8.17105 23.9445 8.17105 23.3913C8.17105 22.8382 8.63797 22.364 9.18271 22.364H54.3181C54.8629 22.364 55.3298 22.8382 55.3298 23.3913C55.3298 23.9445 54.8629 24.4186 54.3181 24.4186Z" fill="#1C91D3"/>
<path d="M53.4621 27.5796H10.817V29.5552H53.4621C54.0069 29.5552 54.4738 29.081 54.4738 28.5279C54.4738 27.9747 54.0069 27.5796 53.4621 27.5796Z" fill="#1C91D3"/>
<path d="M52.2948 32.7161H12.062V34.6917H52.3726C52.9174 34.6917 53.3843 34.2175 53.3843 33.6644C53.3065 33.1902 52.8395 32.7161 52.2948 32.7161Z" fill="#1C91D3"/>
<path d="M102.8 34.0595C101.166 43.5424 93.8505 49.6273 83.8118 49.6273H74.629L69.4929 74.678H59.9989L71.5941 17.2273H81.0881H89.4926C97.8193 17.2273 104.356 25.1297 102.8 34.0595ZM87.7806 26.1571H79.376L76.0298 40.5395H85.2125C89.2591 40.5395 92.5276 37.2995 93.228 33.2692C94.1618 29.318 91.6716 26.1571 87.7806 26.1571Z" fill="white"/>
<path d="M106.38 33.1901C108.247 23.4701 116.34 15.8838 127.08 15.8838C137.974 15.8838 144.044 25.2877 142.254 35.1657C140.62 44.9648 131.982 52.6301 122.021 52.6301C110.271 52.7092 104.434 43.2262 106.38 33.1901ZM133.461 34.2174C134.55 28.2906 130.971 24.6555 125.99 24.6555C121.01 24.6555 116.34 28.2906 115.251 34.2965C114.239 40.3023 117.663 43.9374 122.644 43.9374C127.624 43.9374 132.527 40.3023 133.461 34.2174Z" fill="white"/>
<path d="M162.41 52.7092C152.06 52.7092 145.289 43.9375 147.079 33.6644C148.869 23.3122 157.196 15.9629 167.779 15.9629C176.106 15.9629 182.798 21.9687 182.954 29.6341H173.694C173.071 26.6312 170.503 24.8136 166.845 24.8136C161.554 24.8136 156.962 28.6858 156.028 34.2966C155.095 39.8283 158.285 43.8585 163.577 43.8585C167.235 43.8585 170.425 42.357 172.059 39.038H181.398C178.674 47.3356 171.203 52.7092 162.41 52.7092Z" fill="white"/>
<path d="M185.911 33.1901C187.779 23.4701 195.872 15.8838 206.611 15.8838C217.506 15.8838 223.576 25.2877 221.786 35.1657C220.152 44.9648 211.514 52.6301 201.553 52.6301C189.802 52.7092 184.043 43.2262 185.911 33.1901ZM212.992 34.2174C214.082 28.2906 210.502 24.6555 205.522 24.6555C200.541 24.6555 195.872 28.2906 194.783 34.2965C193.771 40.3023 197.195 43.9374 202.175 43.9374C207.156 43.9374 212.059 40.3023 212.992 34.2174Z" fill="white"/>
<path d="M126.224 63.0615C126.768 63.6147 127.08 64.3259 127.08 65.2742C127.08 65.5112 127.08 65.8273 127.002 66.1434L125.679 73.6507H123.733L124.978 66.2225C125.056 65.9854 125.056 65.8273 125.056 65.6693C125.056 65.1161 124.901 64.721 124.589 64.4839C124.278 64.2468 123.889 64.0888 123.422 64.0888C122.799 64.0888 122.255 64.3259 121.71 64.721C121.165 65.1161 120.776 65.8273 120.62 66.7756L119.453 73.6507H117.508L118.753 66.2225C118.753 66.0644 118.831 65.9064 118.831 65.6693C118.831 65.1161 118.675 64.721 118.364 64.4839C118.052 64.2468 117.663 64.0888 117.196 64.0888C116.574 64.0888 116.029 64.3259 115.484 64.721C114.94 65.1161 114.551 65.8273 114.395 66.6966L113.228 73.6507H111.282L113.228 62.5083H115.173L115.017 63.6147C115.873 62.6664 116.885 62.2712 118.052 62.2712C118.597 62.2712 119.064 62.4293 119.531 62.7454C119.998 63.0615 120.309 63.4566 120.543 64.0098C121.477 62.9034 122.644 62.3503 124.045 62.3503C124.978 62.2712 125.679 62.5083 126.224 63.0615Z" fill="#777777"/>
<path d="M137.663 62.9034C138.363 63.2985 138.908 63.9307 139.297 64.6419C139.686 65.3531 139.842 66.2224 139.842 67.0917C139.842 67.4868 139.842 67.8029 139.764 68.119C139.686 68.5141 139.609 68.8302 139.531 68.9883H137.663H130.504C130.504 70.0156 130.815 70.8058 131.36 71.359C131.904 71.9122 132.683 72.2283 133.694 72.2283C134.395 72.2283 135.017 72.0702 135.64 71.7541C136.184 71.438 136.651 71.0429 136.963 70.5687H138.986C138.519 71.5961 137.741 72.4653 136.807 73.0185C135.873 73.6507 134.706 73.9668 133.461 73.9668C132.527 73.9668 131.671 73.7297 130.971 73.3346C130.27 72.9395 129.648 72.3073 129.258 71.5961C128.869 70.8848 128.636 70.0156 128.636 69.0673C128.636 68.7512 128.636 68.3561 128.714 67.9609C128.869 66.8546 129.336 65.9063 129.881 65.037C130.426 64.1678 131.204 63.5356 132.138 63.0614C133.072 62.5873 134.083 62.3502 135.173 62.3502C136.107 62.2712 136.963 62.4292 137.663 62.9034ZM137.974 67.2497C137.974 66.2224 137.741 65.4322 137.196 64.879C136.651 64.3258 135.951 64.0887 135.095 64.0887C134.005 64.0887 133.149 64.4048 132.371 64.958C131.593 65.5112 131.126 66.3014 130.815 67.3287H137.974V67.2497Z" fill="#777777"/>
<path d="M153.85 62.5083L151.982 73.1766C151.671 74.9151 150.97 76.2585 149.803 77.1278C148.636 77.9971 147.235 78.3922 145.601 78.3922C144.745 78.3922 143.966 78.2341 143.266 77.9181C142.566 77.602 142.021 77.1278 141.554 76.5746C141.165 75.9424 140.931 75.3103 140.931 74.52V74.2039H142.799C142.721 74.599 142.877 74.9942 143.033 75.3893C143.266 75.7844 143.577 76.1005 144.044 76.3376C144.511 76.5746 145.056 76.7327 145.756 76.7327C146.924 76.7327 147.857 76.4166 148.636 75.7844C149.414 75.1522 149.803 74.362 150.036 73.2556L150.27 71.9122C149.725 72.5444 149.103 73.0185 148.324 73.3346C147.546 73.6507 146.768 73.8088 145.834 73.8088C144.9 73.8088 144.122 73.5717 143.422 73.1766C142.721 72.7815 142.177 72.1493 141.71 71.359C141.321 70.5688 141.087 69.7785 141.087 68.8303C141.087 68.4351 141.087 68.119 141.165 67.8029C141.398 66.6966 141.787 65.6693 142.41 64.879C143.033 64.0098 143.733 63.3776 144.667 62.9034C145.601 62.4293 146.457 62.2712 147.39 62.2712C148.324 62.2712 149.103 62.5083 149.881 62.9034C150.659 63.2986 151.126 63.9308 151.515 64.642L151.904 62.5083H153.85ZM148.48 71.5171C149.103 71.201 149.647 70.8059 150.114 70.2527C150.581 69.6995 150.815 69.0673 150.97 68.3561V67.961C150.97 67.8029 151.048 67.5659 151.048 67.3288C151.048 66.3015 150.737 65.5112 150.036 64.9581C149.414 64.4049 148.558 64.0888 147.624 64.0888C146.924 64.0888 146.301 64.2468 145.678 64.5629C145.056 64.879 144.511 65.2742 144.044 65.9064C143.577 66.5386 143.266 67.1707 143.188 68.04C143.11 68.2771 143.11 68.5142 143.11 68.7512C143.11 69.6995 143.422 70.4898 144.044 71.122C144.667 71.7542 145.445 72.0703 146.457 72.0703C147.157 71.9912 147.857 71.8332 148.48 71.5171Z" fill="#777777"/>
<path d="M163.499 63.2195C164.2 63.8517 164.511 64.7209 164.511 65.7482C164.511 65.9853 164.511 66.2224 164.433 66.5385L163.188 73.7297H161.32L161.476 72.7024C160.62 73.5717 159.53 74.0458 158.207 74.0458C157.585 74.0458 157.04 73.8878 156.495 73.6507C155.951 73.4136 155.562 73.0185 155.25 72.5443C154.939 72.0702 154.783 71.517 154.783 70.8848C154.783 70.6478 154.783 70.4107 154.861 70.2526C155.017 69.1463 155.562 68.277 156.418 67.7239C157.274 67.1707 158.207 66.8546 159.297 66.8546C159.919 66.8546 160.542 67.0126 161.087 67.2497C161.631 67.4868 162.021 67.8819 162.332 68.277L162.643 66.6175C162.643 66.4595 162.721 66.3014 162.721 65.9853C162.721 65.3531 162.565 64.879 162.176 64.5629C161.787 64.2468 161.32 64.0887 160.698 64.0887C159.997 64.0887 159.453 64.2468 158.908 64.5629C158.441 64.879 158.13 65.3531 157.974 65.9853H156.106C156.34 64.7999 156.884 63.9307 157.741 63.2195C158.597 62.5082 159.686 62.1921 161.009 62.1921C161.943 62.2712 162.799 62.5873 163.499 63.2195ZM161.009 71.6751C161.631 71.28 161.865 70.7268 161.865 70.0946C161.865 69.6204 161.631 69.2253 161.165 68.9092C160.698 68.5931 160.153 68.4351 159.453 68.4351C158.597 68.4351 157.974 68.5931 157.507 68.9092C157.04 69.2253 156.729 69.6995 156.651 70.2526C156.651 70.3317 156.651 70.4107 156.651 70.5687C156.651 71.0429 156.807 71.438 157.196 71.7541C157.585 72.0702 158.13 72.2282 158.83 72.2282C159.686 72.3073 160.464 72.0702 161.009 71.6751Z" fill="#777777"/>
<path d="M178.441 65.9063C178.441 65.7482 178.518 65.5902 178.518 65.5112C178.518 65.037 178.363 64.6419 177.974 64.4048C177.662 64.1678 177.195 64.0097 176.729 64.0097C176.106 64.0097 175.561 64.1678 175.094 64.4048C174.627 64.7209 174.394 65.116 174.394 65.6692C174.394 66.0643 174.55 66.3804 174.939 66.6175C175.328 66.8546 175.873 67.0917 176.651 67.3287C177.351 67.5658 177.896 67.7239 178.285 67.9609C178.752 68.198 179.063 68.4351 179.374 68.8302C179.686 69.2253 179.841 69.6995 179.841 70.2526C179.841 71.359 179.374 72.3073 178.518 73.0185C177.662 73.7297 176.495 74.0458 175.172 74.0458C174.083 74.0458 173.149 73.8087 172.448 73.2556C171.748 72.7024 171.437 71.9912 171.437 71.1219C171.437 70.8848 171.437 70.6478 171.515 70.4107H173.382C173.382 70.5687 173.304 70.7268 173.304 70.8058C173.304 71.28 173.46 71.6751 173.849 71.9121C174.238 72.1492 174.705 72.2282 175.328 72.2282C176.028 72.2282 176.573 72.0702 177.04 71.8331C177.507 71.5961 177.818 71.2009 177.896 70.7268C177.896 70.6478 177.896 70.5687 177.896 70.4897C177.896 70.0946 177.74 69.7785 177.351 69.5414C176.962 69.3043 176.417 69.0673 175.639 68.8302C174.939 68.5931 174.394 68.4351 174.005 68.198C173.616 67.9609 173.227 67.7239 172.915 67.3287C172.604 66.9336 172.448 66.4595 172.448 65.9063C172.448 65.116 172.682 64.4839 173.071 63.9307C173.46 63.3775 174.005 62.9824 174.705 62.6663C175.406 62.3502 176.106 62.1921 176.962 62.1921C177.974 62.1921 178.83 62.4292 179.53 62.9824C180.23 63.5356 180.542 64.2468 180.542 65.116C180.542 65.2741 180.542 65.5112 180.464 65.7482H178.441V65.9063Z" fill="#777777"/>
<path d="M188.09 64.4048H185.989L184.355 73.6507H182.409L184.044 64.4048H181.865L182.176 62.5082H184.355L184.977 58.9521H186.923L186.3 62.5082H188.479L188.09 64.4048Z" fill="#777777"/>
<path d="M190.736 73.3346C189.958 72.9395 189.335 72.3863 188.946 71.596C188.479 70.8848 188.324 70.0156 188.324 68.9882C188.324 68.6721 188.324 68.277 188.401 67.8819C188.635 66.6965 189.024 65.7482 189.724 64.879C190.425 64.0097 191.203 63.3775 192.137 62.9034C193.071 62.4292 194.082 62.1921 195.094 62.1921C196.028 62.1921 196.806 62.4292 197.584 62.8243C198.285 63.2195 198.907 63.7726 199.374 64.5629C199.841 65.2741 199.997 66.1434 199.997 67.0917C199.997 67.4078 199.997 67.8029 199.919 68.198C199.763 69.3834 199.296 70.4107 198.674 71.2799C197.973 72.1492 197.195 72.7814 196.261 73.2556C195.327 73.7297 194.316 73.9668 193.382 73.9668C192.292 73.9668 191.436 73.7297 190.736 73.3346ZM195.405 71.596C196.028 71.2799 196.65 70.8058 197.117 70.2526C197.584 69.6204 197.895 68.9092 198.051 68.0399C198.129 67.7238 198.129 67.4868 198.129 67.2497C198.129 66.3014 197.818 65.5112 197.195 64.958C196.573 64.4048 195.794 64.1677 194.86 64.1677C194.16 64.1677 193.538 64.3258 192.915 64.6419C192.292 64.958 191.748 65.4321 191.281 65.9853C190.814 66.6175 190.503 67.3287 190.347 68.119C190.269 68.4351 190.269 68.6721 190.269 68.9092C190.269 69.9365 190.58 70.6477 191.203 71.2009C191.826 71.7541 192.604 72.0702 193.46 72.0702C194.082 72.0702 194.705 71.9121 195.405 71.596Z" fill="#777777"/>
<path d="M208.401 62.3502L208.012 64.4048C207.078 64.3258 206.3 64.6419 205.522 65.195C204.744 65.7482 204.354 66.6175 204.121 67.8028L203.109 73.7297H201.164L203.109 62.5872H205.055L204.821 64.0887C205.677 62.8243 206.845 62.2711 208.401 62.3502Z" fill="#777777"/>
<path d="M217.039 62.9034C217.739 63.2985 218.284 63.9307 218.673 64.6419C219.062 65.3531 219.218 66.2224 219.218 67.0917C219.218 67.4868 219.218 67.8029 219.14 68.119C219.062 68.5141 218.985 68.8302 218.907 68.9883H217.039H209.88C209.88 70.0156 210.191 70.8058 210.736 71.359C211.28 71.9122 212.059 72.2283 213.07 72.2283C213.771 72.2283 214.393 72.0702 215.016 71.7541C215.561 71.438 216.027 71.0429 216.339 70.5687H218.362C217.895 71.5961 217.117 72.4653 216.183 73.0185C215.249 73.6507 214.082 73.9668 212.837 73.9668C211.903 73.9668 211.047 73.7297 210.347 73.3346C209.646 72.9395 209.024 72.3073 208.635 71.5961C208.245 70.8848 208.012 70.0156 208.012 69.0673C208.012 68.7512 208.012 68.3561 208.09 67.9609C208.245 66.8546 208.712 65.9063 209.257 65.037C209.88 64.1678 210.58 63.5356 211.514 63.0614C212.448 62.5873 213.459 62.3502 214.549 62.3502C215.483 62.2712 216.339 62.4292 217.039 62.9034ZM217.35 67.2497C217.35 66.2224 217.117 65.4322 216.572 64.879C216.027 64.3258 215.327 64.0887 214.471 64.0887C213.382 64.0887 212.526 64.4048 211.747 64.958C210.969 65.5112 210.502 66.3014 210.191 67.3287H217.35V67.2497Z" fill="#777777"/>
</svg>
