<svg viewBox="0 0 212 76" fill="none" xmlns="http://www.w3.org/2000/svg">
<path d="M52.6281 56.9072H21.7579C18.0386 56.9072 15.2491 53.9413 15.2491 50.234C15.2491 46.5267 18.2246 43.5609 21.7579 43.5609H48.1649C50.3965 43.5609 52.2561 41.8926 52.814 39.8535L59.5088 5.37549H74.7579C75.8737 5.37549 76.8035 6.30232 76.8035 7.59988C76.8035 8.89744 75.8737 9.82427 74.7579 9.82427H63.0421L56.9053 40.7804C56.1614 45.0438 52.4421 48.195 48.1649 48.195H21.7579C20.4561 48.195 19.5263 49.3072 19.5263 50.4194C19.5263 51.5316 20.4561 52.6438 21.7579 52.6438H52.6281C53.7438 52.6438 54.6737 53.5706 54.6737 54.8682C54.6737 55.795 53.7438 56.9072 52.6281 56.9072Z" fill="#D33F3F"/>
<path d="M24.9193 70.81C28.0807 70.81 30.8702 68.0295 30.8702 64.8782C30.8702 61.5417 28.2667 58.9465 24.9193 58.9465C21.5719 58.9465 18.9684 61.727 18.9684 64.8782C19.1544 68.0295 21.7579 70.81 24.9193 70.81Z" fill="#D33F3F"/>
<path d="M45.1895 70.81C48.3509 70.81 51.1403 68.0295 51.1403 64.8782C51.1403 61.5417 48.5368 58.9465 45.1895 58.9465C41.8421 58.9465 39.2386 61.727 39.2386 64.8782C39.2386 68.0295 41.8421 70.81 45.1895 70.81Z" fill="#D33F3F"/>
<path d="M55.6035 38.9271H19.7123C14.5053 38.9271 10.0421 35.4051 8.55438 30.4003L4.27719 14.2734H59.5088C60.4386 14.2734 61.3684 15.0149 61.3684 16.1271C61.3684 17.2393 60.6246 17.9808 59.5088 17.9808H9.11228L12.0877 29.2881C13.0175 32.81 16.1789 35.2198 19.7123 35.2198H55.6035C56.5333 35.2198 57.4632 35.9612 57.4632 37.0734C57.4632 38.0003 56.5333 38.9271 55.6035 38.9271Z" fill="#D33F3F"/>
<path d="M50.7684 22.9853H8.5544C7.9965 22.9853 7.62457 22.6145 7.62457 22.0584C7.62457 21.5023 7.9965 21.1316 8.5544 21.1316H50.7684C51.3263 21.1316 51.6982 21.5023 51.6982 22.0584C51.6982 22.6145 51.3263 22.9853 50.7684 22.9853Z" fill="#D33F3F"/>
<path d="M49.8386 25.9512H10.0421V27.8048H49.8386C50.3965 27.8048 50.7684 27.4341 50.7684 26.878C50.9544 26.3219 50.3965 25.9512 49.8386 25.9512Z" fill="#D33F3F"/>
<path d="M48.9088 30.771H11.3439V32.6247H48.9088C49.4667 32.6247 49.8386 32.2539 49.8386 31.6978C49.8386 31.1417 49.2807 30.771 48.9088 30.771Z" fill="#D33F3F"/>
<path d="M95.9579 31.8831C94.4702 40.7806 87.5895 46.527 78.2912 46.527H69.7368L64.9018 70.0684H55.9754L66.9474 16.127H75.8737H83.6842C91.3088 16.127 97.4456 23.5416 95.9579 31.8831ZM82.0105 24.4684H74.2L71.0386 38.0001H79.593C83.3123 38.0001 86.4737 35.0343 87.0316 31.1416C87.9614 27.4343 85.5439 24.4684 82.0105 24.4684Z" fill="#404040"/>
<path d="M99.3053 31.1413C100.979 22.0584 108.603 14.8291 118.646 14.8291C128.874 14.8291 134.453 23.7267 132.779 32.995C131.291 42.2632 123.109 49.3071 113.811 49.3071C103.025 49.4925 97.4456 40.5949 99.3053 31.1413ZM124.596 32.0681C125.526 26.5071 122.179 23.1706 117.53 23.1706C112.881 23.1706 108.603 26.5071 107.488 32.2535C106.558 37.8145 109.719 41.3364 114.368 41.3364C119.018 41.3364 123.853 37.8145 124.596 32.0681Z" fill="#404040"/>
<path d="M151.747 49.4927C142.077 49.4927 135.754 41.3366 137.428 31.6976C139.102 22.0586 146.912 15.0146 156.768 15.0146C164.579 15.0146 170.716 20.5756 170.902 27.8049H162.161C161.604 25.0244 159.186 23.3561 155.839 23.3561C150.818 23.3561 146.54 27.0634 145.796 32.2537C144.867 37.4439 147.842 41.1512 152.863 41.1512C156.211 41.1512 159.186 39.6683 160.86 36.7025H169.6C166.811 44.4878 159.93 49.4927 151.747 49.4927Z" fill="#404040"/>
<path d="M173.691 31.1413C175.365 22.0584 182.989 14.8291 193.032 14.8291C203.26 14.8291 208.839 23.7267 207.165 32.995C205.677 42.2632 197.495 49.3071 188.196 49.3071C177.225 49.4925 171.832 40.5949 173.691 31.1413ZM198.982 32.0681C199.912 26.5071 196.751 23.1706 191.916 23.1706C187.267 23.1706 182.989 26.5071 181.874 32.2535C180.944 37.8145 184.105 41.3364 188.754 41.3364C193.403 41.3364 198.053 37.8145 198.982 32.0681Z" fill="#404040"/>
<path d="M117.902 59.1316C118.46 59.6877 118.646 60.2438 118.646 61.1706C118.646 61.356 118.646 61.7267 118.646 61.9121L117.344 68.956H115.484L116.6 61.9121C116.6 61.7267 116.6 61.5414 116.6 61.356C116.6 60.7999 116.414 60.4292 116.228 60.2438C115.856 60.0584 115.484 59.8731 115.112 59.8731C114.554 59.8731 113.997 60.0584 113.439 60.4292C112.881 60.7999 112.509 61.5414 112.509 62.2828L111.579 69.1414H109.719L110.835 62.0975C110.835 61.9121 110.835 61.7267 110.835 61.5414C110.835 60.9853 110.649 60.6145 110.463 60.4292C110.091 60.2438 109.719 60.0584 109.347 60.0584C108.789 60.0584 108.232 60.2438 107.674 60.6145C107.116 60.9853 106.744 61.7267 106.744 62.4682L105.628 68.956H103.768L105.628 58.5755H107.488L107.302 59.6877C108.046 58.7609 108.975 58.3901 110.091 58.3901C110.649 58.3901 111.021 58.5755 111.393 58.7609C111.765 59.1316 112.137 59.5023 112.323 59.8731C113.253 58.7609 114.368 58.3901 115.67 58.3901C116.786 58.3901 117.344 58.5755 117.902 59.1316Z" fill="#777777"/>
<path d="M128.502 58.9461C129.246 59.3168 129.618 59.8729 129.99 60.6144C130.361 61.3559 130.547 62.0973 130.547 62.8388C130.547 63.2095 130.547 63.5803 130.547 63.7656C130.547 64.1364 130.361 64.5071 130.361 64.5071H128.688H121.993C121.993 65.4339 122.365 66.1754 122.737 66.7315C123.295 67.2876 124.039 67.473 124.968 67.473C125.712 67.473 126.27 67.2876 126.828 67.1022C127.386 66.7315 127.758 66.3608 128.13 65.99H129.99C129.618 66.9169 128.874 67.8437 127.944 68.2144C127.014 68.7705 125.898 69.1412 124.782 69.1412C123.853 69.1412 123.109 68.9559 122.365 68.5851C121.621 68.2144 121.063 67.6583 120.691 66.9169C120.319 66.1754 120.133 65.4339 120.133 64.5071C120.133 64.1364 120.133 63.7656 120.133 63.3949C120.319 62.2827 120.691 61.5412 121.249 60.6144C121.807 59.8729 122.551 59.1315 123.295 58.7608C124.039 58.39 125.154 58.0193 126.084 58.0193C127.2 58.39 127.944 58.5754 128.502 58.9461ZM128.874 63.0242C128.874 62.0973 128.688 61.3559 128.13 60.7998C127.572 60.2437 127.014 60.0583 126.084 60.0583C125.154 60.0583 124.225 60.429 123.481 60.7998C122.737 61.3559 122.365 62.0973 121.993 63.0242H128.874Z" fill="#777777"/>
<path d="M143.751 58.5756L141.891 68.5853C141.519 70.2536 140.961 71.5512 139.846 72.2926C138.73 73.0341 137.428 73.4048 135.94 73.4048C135.196 73.4048 134.453 73.2195 133.709 73.0341C132.965 72.8487 132.593 72.2926 132.035 71.7365C131.663 71.1805 131.477 70.6244 131.477 69.8829V69.5122H133.151C133.151 69.8829 133.151 70.2536 133.337 70.6243C133.523 70.9951 133.895 71.3658 134.267 71.5512C134.639 71.7365 135.196 71.9219 135.94 71.9219C137.056 71.9219 137.986 71.5512 138.544 70.9951C139.102 70.439 139.66 69.6975 139.846 68.5853L140.032 67.2878C139.474 67.8439 138.916 68.4 138.172 68.5853C137.428 68.7707 136.684 68.9561 135.754 68.9561C134.825 68.9561 134.081 68.7707 133.523 68.4C132.779 68.0292 132.407 67.4731 131.849 66.7317C131.477 65.9902 131.291 65.2487 131.291 64.3219C131.291 63.9512 131.291 63.5804 131.291 63.3951C131.477 62.2829 131.849 61.3561 132.407 60.6146C132.965 59.8731 133.709 59.1317 134.453 58.7609C135.382 58.3902 136.126 58.2048 137.056 58.2048C137.986 58.2048 138.73 58.3902 139.474 58.7609C140.218 59.1317 140.589 59.6878 140.961 60.4292L141.333 58.3902H143.751V58.5756ZM138.73 67.1024C139.288 66.7317 139.846 66.3609 140.218 65.9902C140.589 65.4341 140.961 64.878 140.961 64.1365V63.7658C140.961 63.5804 140.961 63.3951 140.961 63.2097C140.961 62.2829 140.589 61.5414 140.032 60.9853C139.474 60.4292 138.73 60.2439 137.8 60.2439C137.056 60.2439 136.498 60.4292 135.94 60.6146C135.382 60.9853 134.825 61.3561 134.453 61.9122C134.081 62.4683 133.709 63.0243 133.709 63.9512C133.709 64.1365 133.709 64.3219 133.709 64.6926C133.709 65.6195 134.081 66.3609 134.639 66.917C135.196 67.4731 135.94 67.8439 136.87 67.8439C137.428 67.4731 138.172 67.4731 138.73 67.1024Z" fill="#777777"/>
<path d="M152.677 59.3168C153.421 59.8729 153.607 60.7997 153.607 61.7265C153.607 61.9119 153.607 62.0973 153.607 62.468L152.491 69.1412H150.632L150.818 68.2143C150.074 68.9558 148.958 69.5119 147.842 69.5119C147.284 69.5119 146.726 69.3265 146.168 69.1412C145.611 68.9558 145.239 68.5851 145.053 68.029C144.681 67.6582 144.681 67.1021 144.681 66.5461C144.681 66.3607 144.681 66.1753 144.681 65.9899C144.867 64.8778 145.425 64.1363 146.168 63.5802C146.912 63.0241 147.842 62.8387 148.772 62.8387C149.33 62.8387 149.888 63.0241 150.446 63.2095C151.004 63.3948 151.375 63.7656 151.561 64.1363L151.933 62.6534C151.933 62.468 151.933 62.2826 151.933 62.0973C151.933 61.5412 151.747 60.9851 151.375 60.7997C151.004 60.429 150.632 60.429 150.074 60.429C149.33 60.429 148.958 60.6143 148.4 60.7997C148.028 61.1704 147.656 61.5412 147.47 62.0973H145.797C145.982 60.9851 146.54 60.2436 147.284 59.5021C148.028 58.7607 149.144 58.5753 150.26 58.5753C151.189 58.39 152.119 58.7607 152.677 59.3168ZM150.446 67.2875C151.004 66.9168 151.189 66.3607 151.189 65.8046C151.189 65.4339 151.004 65.0631 150.446 64.6924C150.074 64.3217 149.516 64.3217 148.772 64.3217C148.028 64.3217 147.47 64.507 146.912 64.6924C146.54 65.0631 146.168 65.4339 146.168 65.9899C146.168 65.9899 146.168 66.1753 146.168 66.3607C146.168 66.7314 146.354 67.1021 146.726 67.4729C147.098 67.8436 147.656 67.8436 148.214 67.8436C149.144 67.8436 149.888 67.6582 150.446 67.2875Z" fill="#777777"/>
<path d="M166.625 61.9121C166.625 61.7267 166.625 61.5414 166.625 61.5414C166.625 61.1706 166.439 60.7999 166.067 60.4292C165.695 60.2438 165.323 60.0584 164.951 60.0584C164.393 60.0584 163.835 60.2438 163.463 60.4292C163.091 60.7999 162.719 61.1706 162.719 61.5414C162.719 61.9121 162.905 62.2828 163.277 62.4682C163.649 62.6536 164.207 62.8389 164.951 63.2096C165.695 63.395 166.067 63.5804 166.439 63.7657C166.811 63.9511 167.182 64.1365 167.368 64.5072C167.74 64.8779 167.74 65.2487 167.74 65.8048C167.74 66.917 167.368 67.6584 166.439 68.3999C165.695 69.1414 164.579 69.3267 163.277 69.3267C162.347 69.3267 161.418 69.1414 160.674 68.5853C159.93 68.0292 159.744 67.4731 159.744 66.5462C159.744 66.3609 159.744 66.1755 159.744 65.8048H161.418C161.418 65.9901 161.418 66.1755 161.418 66.1755C161.418 66.5462 161.604 66.917 161.975 67.2877C162.347 67.4731 162.719 67.6584 163.277 67.6584C164.021 67.6584 164.393 67.4731 164.951 67.2877C165.323 67.1023 165.695 66.7316 165.695 66.1755V65.9901C165.695 65.6194 165.509 65.2487 165.137 65.0633C164.765 64.8779 164.207 64.6926 163.463 64.3218C162.719 64.1365 162.347 63.9511 161.975 63.7657C161.604 63.5804 161.232 63.395 161.046 63.0243C160.674 62.6536 160.674 62.2828 160.674 61.7267C160.674 60.9853 160.86 60.4292 161.232 59.8731C161.604 59.317 162.161 58.9462 162.719 58.7609C163.277 58.5755 164.021 58.3901 164.765 58.3901C165.695 58.3901 166.439 58.5755 167.182 59.1316C167.926 59.6877 168.112 60.2438 168.112 61.1706C168.112 61.356 168.112 61.5414 168.112 61.7267L166.625 61.9121Z" fill="#777777"/>
<path d="M175.737 60.4293H173.691L172.204 69.1415H170.344L171.832 60.4293H169.786L170.158 58.5756H172.204L172.761 55.239H174.621L174.063 58.5756H176.109L175.737 60.4293Z" fill="#777777"/>
<path d="M178.154 68.7707C177.411 68.4 176.853 67.8439 176.481 67.1024C176.109 66.3609 175.923 65.6195 175.923 64.6926C175.923 64.3219 175.923 63.9512 175.923 63.5804C176.109 62.4682 176.481 61.5414 177.225 60.8C177.968 60.0585 178.526 59.317 179.456 58.9463C180.386 58.5756 181.316 58.2048 182.246 58.2048C183.175 58.2048 183.919 58.3902 184.663 58.7609C185.407 59.1317 185.965 59.6878 186.337 60.4292C186.709 61.1707 186.895 61.9122 186.895 62.839C186.895 63.2097 186.895 63.5804 186.895 63.9512C186.709 65.0634 186.337 65.9902 185.779 66.917C185.035 67.6585 184.477 68.4 183.547 68.7707C182.618 69.1414 181.688 69.5122 180.944 69.5122C179.642 69.3268 178.712 69.1414 178.154 68.7707ZM182.432 67.1024C182.989 66.7317 183.547 66.3609 184.105 65.8048C184.477 65.2487 184.849 64.5073 185.035 63.7658C185.035 63.3951 185.035 63.2097 185.035 63.0243C185.035 62.0975 184.663 61.3561 184.105 60.8C183.547 60.2439 182.804 60.0585 181.874 60.0585C181.13 60.0585 180.572 60.2439 180.014 60.4292C179.456 60.8 178.898 61.1707 178.526 61.7268C178.154 62.2829 177.782 63.0244 177.596 63.7658C177.596 64.1365 177.596 64.3219 177.596 64.5073C177.596 65.4341 177.968 66.1756 178.526 66.7317C179.084 67.2878 179.828 67.4731 180.572 67.4731C181.316 67.6585 181.874 67.4731 182.432 67.1024Z" fill="#777777"/>
<path d="M194.705 58.5755L194.333 60.4292C193.404 60.4292 192.66 60.6146 191.916 61.1706C191.172 61.7267 190.8 62.4682 190.614 63.5804L189.684 69.1414H187.825L189.684 58.7609H191.544L191.358 60.2438C192.102 58.9463 193.218 58.3902 194.705 58.5755Z" fill="#777777"/>
<path d="M202.702 58.9461C203.446 59.3168 203.818 59.8729 204.189 60.6144C204.561 61.3559 204.747 62.0973 204.747 62.8388C204.747 63.2095 204.747 63.5803 204.747 63.7656C204.747 64.1364 204.561 64.5071 204.561 64.5071H202.702H196.007C196.007 65.4339 196.379 66.1754 196.751 66.7315C197.309 67.2876 198.053 67.473 198.982 67.473C199.726 67.473 200.284 67.2876 200.842 67.1022C201.4 66.7315 201.772 66.3608 202.144 65.99H204.004C203.632 66.9169 202.888 67.8437 201.958 68.2144C201.028 68.7705 199.912 69.1412 198.797 69.1412C197.867 69.1412 197.123 68.9559 196.565 68.5851C196.007 68.2144 195.263 67.6583 194.891 66.9169C194.519 66.1754 194.333 65.4339 194.333 64.5071C194.333 64.1364 194.333 63.7656 194.333 63.3949C194.519 62.2827 194.891 61.5412 195.449 60.6144C196.007 59.8729 196.751 59.1315 197.495 58.7608C198.239 58.39 199.354 58.0193 200.284 58.0193C201.214 58.39 201.958 58.5754 202.702 58.9461ZM203.074 63.0242C203.074 62.0973 202.888 61.3559 202.33 60.7998C201.772 60.2437 201.214 60.0583 200.284 60.0583C199.354 60.0583 198.425 60.429 197.681 60.7998C196.937 61.3559 196.565 62.0973 196.193 63.0242H203.074Z" fill="#777777"/>
</svg>
