<svg version="1.1" xmlns="http://www.w3.org/2000/svg" xmlns:xlink="http://www.w3.org/1999/xlink" x="0px" y="0px"
	 viewBox="0 0 281 94" style="enable-background:new 0 0 281 94;" xml:space="preserve">
<g>
	<path fill="#ffb610" d="M67.29,70.12H24.85c-4.95,0-8.98-4.03-8.98-8.98c0-4.95,4.03-8.98,8.98-8.98H61.2c3.04,0,5.69-2.17,6.29-5.15
		l9.31-46.38h20.98c1.63,0,2.94,1.32,2.94,2.94s-1.32,2.94-2.94,2.94H81.61l-8.36,41.65c-1.15,5.72-6.22,9.88-12.06,9.88H24.85
		c-1.71,0-3.09,1.39-3.09,3.09c0,1.71,1.39,3.1,3.09,3.1h42.44c1.63,0,2.94,1.32,2.94,2.94S68.92,70.12,67.29,70.12z"/>
</g>
<g>
	<circle fill="#ffb610" cx="29.41" cy="80.74" r="8.06"/>
</g>
<g>
	<circle fill="#ffb610" cx="57.09" cy="80.74" r="8.06"/>
</g>
<g>
	<path fill="#ffb610" d="M71.45,45.91H22.18c-7.1,0-13.38-4.78-15.29-11.61L0.87,12.67h76c1.39,0,2.52,1.13,2.52,2.52
		s-1.13,2.52-2.52,2.52H7.51l4.24,15.23c1.3,4.66,5.59,7.92,10.43,7.92h49.27c1.39,0,2.52,1.13,2.52,2.52
		C73.97,44.78,72.84,45.91,71.45,45.91z"/>
</g>
<g>
	<path fill="#ffb610" d="M64.81,24.33H6.77c-0.7,0-1.26-0.56-1.26-1.26s0.56-1.26,1.26-1.26h58.04c0.7,0,1.26,0.56,1.26,1.26
		S65.51,24.33,64.81,24.33z"/>
</g>
<g>
	<path fill="#ffb610" d="M63.69,28.32H8.88v2.52h54.81c0.7,0,1.26-0.56,1.26-1.26S64.39,28.32,63.69,28.32z"/>
</g>
<g>
	<path fill="#ffb610" d="M62.22,34.84H10.45v2.52h51.76c0.7,0,1.26-0.56,1.26-1.26C63.48,35.41,62.91,34.84,62.22,34.84z"/>
</g>
<path fill="#ffffff" d="M127.05,36.55c-2.11,11.98-11.54,19.65-24.41,19.65H90.9l-6.61,31.71H72.12l14.84-72.68h12.16h10.75
	C120.71,15.23,129.08,25.27,127.05,36.55z M107.84,26.59H97.09l-4.26,18.24h11.84c5.2,0,9.43-4.05,10.31-9.16
	C115.95,30.56,112.78,26.59,107.84,26.59z"/>
<path fill="#ffffff" d="M131.7,35.47c2.38-12.34,12.78-21.85,26.61-21.85c14.01,0,21.77,11.9,19.47,24.41
	c-2.11,12.42-13.22,22.12-26,22.12C136.73,60.14,129.24,48.16,131.7,35.47z M166.51,36.79c1.41-7.49-3.17-12.07-9.6-12.07
	s-12.42,4.58-13.83,12.16c-1.32,7.58,3.08,12.16,9.52,12.16S165.28,44.46,166.51,36.79z"/>
<path fill="#ffffff" d="M203.7,60.14c-13.31,0-22.03-11.1-19.74-24.14c2.29-13.13,13.04-22.38,26.61-22.38
	c10.66,0,19.3,7.58,19.47,17.27h-11.9c-0.79-3.79-4.05-6.08-8.81-6.08c-6.79,0-12.69,4.93-13.92,11.98
	c-1.23,6.96,2.91,12.07,9.69,12.07c4.67,0,8.81-1.94,10.93-6.08h11.98C224.58,53.36,214.98,60.14,203.7,60.14z"/>
<path fill="#ffffff" d="M233.92,35.47c2.38-12.34,12.78-21.85,26.61-21.85c14.01,0,21.77,11.9,19.47,24.41
	c-2.12,12.42-13.22,22.12-26,22.12C238.95,60.14,231.46,48.16,233.92,35.47z M268.73,36.79c1.41-7.49-3.17-12.07-9.61-12.07
	c-6.43,0-12.42,4.58-13.83,12.16c-1.32,7.58,3.08,12.16,9.52,12.16S267.5,44.46,268.73,36.79z"/>
<g>
	<path fill="#ea773b" d="M158.19,77.18l-1.66,9.49h-2.45l1.63-9.41c0.37-1.94-0.68-2.7-1.97-2.7c-1.21,0-3.01,0.73-3.58,3.38
		l-1.52,8.73h-2.45l1.63-9.41c0.34-1.94-0.68-2.7-1.97-2.7c-1.24,0-3.01,0.73-3.58,3.3l-1.55,8.82h-2.45l2.48-14.08h2.45l-0.23,1.38
		c1.18-1.29,2.59-1.75,3.94-1.75c1.32,0,2.59,0.76,3.15,2.14c1.32-1.58,2.87-2.14,4.48-2.14C156.78,72.22,158.75,74,158.19,77.18z"
		/>
	<path fill="#ea773b" d="M174.61,79.66c-0.08,0.37-0.17,0.73-0.28,1.1h-2.42h-9.18c0,2.54,1.61,4.06,4.11,4.06
		c1.86,0,3.38-0.84,4.14-2.06h2.59c-1.24,2.56-3.8,4.28-7.1,4.28c-4.17,0-6.82-3.46-6.06-7.69c0.73-4.17,4-7.13,8.34-7.13
		C172.78,72.22,175.32,75.71,174.61,79.66z M172.3,78.59c0.08-2.76-1.63-4.06-3.75-4.06c-2.73,0-4.7,1.58-5.49,4.06H172.3z"/>
	<path fill="#ea773b" d="M192.67,72.59l-2.37,13.49c-0.82,4.7-4.39,6.59-8.2,6.59c-3.3,0-6.23-2.11-5.94-5.41h2.42
		c-0.17,1.46,1.13,3.13,3.86,3.13c3.01,0,4.99-1.66,5.44-4.31l0.28-1.66c-1.32,1.55-3.24,2.48-5.66,2.48
		c-4.06,0-6.65-3.58-5.94-7.63c0.79-4.45,4.34-7.04,7.94-7.04c2.34,0,4.31,1.1,5.3,3.04l0.45-2.68H192.67z M188.98,79.91l0.06-0.42
		c0.48-3.18-1.72-4.93-4.28-4.93c-2.54,0-5.18,1.69-5.75,4.9c-0.48,2.82,1.27,5.1,4.17,5.1C185.94,84.56,188.42,82.64,188.98,79.91z
		"/>
	<path fill="#ea773b" d="M206.31,77.57l-1.61,9.1h-2.42l0.23-1.3c-1.07,1.13-2.54,1.66-4.23,1.66c-2.56,0-4.9-1.72-4.37-4.73
		c0.51-3.01,3.21-4.28,5.72-4.28c1.69,0,3.13,0.68,3.86,1.77l0.39-2.14c0.39-2.28-0.93-3.1-2.56-3.1s-3.16,0.79-3.46,2.48h-2.42
		c0.54-2.93,3.01-4.82,6.28-4.82C204.73,72.22,206.87,74.39,206.31,77.57z M203.01,82.53c0.28-1.52-1.15-2.45-3.01-2.45
		c-2.17,0-3.41,0.99-3.66,2.39c-0.25,1.41,0.7,2.48,2.79,2.48C201.16,84.95,202.76,83.94,203.01,82.53z"/>
	<path fill="#ea773b" d="M224.26,76.81c0.31-1.69-0.9-2.31-2.25-2.31c-1.38,0-2.79,0.54-3.01,1.86c-0.56,3.13,7.83,1.44,6.9,6.73
		c-0.45,2.48-2.82,3.94-5.94,3.94s-5.24-1.69-4.7-4.59h2.42c-0.31,1.69,0.9,2.31,2.51,2.31c1.63,0,3.04-0.59,3.27-1.92
		c0.56-3.1-7.83-1.44-6.9-6.7c0.45-2.51,2.87-3.92,5.69-3.92c2.82,0,4.99,1.69,4.45,4.59H224.26z"/>
	<path fill="#ea773b" d="M236.74,74.95h-2.76l-2.06,11.72h-2.45l2.06-11.72h-2.79l0.42-2.37h2.76l0.82-4.51h2.45l-0.82,4.51h2.79
		L236.74,74.95z"/>
	<path fill="#ea773b" d="M237.02,79.38c0.82-4.53,4.76-7.15,8.68-7.15s6.9,3.13,6.11,7.61c-0.79,4.62-4.68,7.21-8.48,7.21
		C239.28,87.04,236.21,83.94,237.02,79.38z M249.39,79.57c0.56-3.21-1.55-4.96-4.08-4.96c-2.51,0.03-5.21,1.75-5.83,5.01
		c-0.54,3.3,1.55,5.04,4.06,5.01C246.09,84.64,248.82,82.9,249.39,79.57z"/>
	<path fill="#ea773b" d="M262.77,72.33l-0.45,2.56c-2.11-0.08-4.42,1.04-5.01,4.28l-1.32,7.49h-2.45l2.48-14.08h2.45l-0.34,1.92
		C259.42,72.81,261.05,72.28,262.77,72.33z"/>
	<path fill="#ea773b" d="M276.6,79.66c-0.08,0.37-0.17,0.73-0.28,1.1h-2.42h-9.18c0,2.54,1.61,4.06,4.11,4.06
		c1.86,0,3.38-0.84,4.14-2.06h2.59c-1.24,2.56-3.8,4.28-7.1,4.28c-4.17,0-6.82-3.46-6.06-7.69c0.73-4.17,4-7.13,8.34-7.13
		C274.77,72.22,277.31,75.71,276.6,79.66z M274.29,78.59c0.08-2.76-1.63-4.06-3.75-4.06c-2.73,0-4.7,1.58-5.49,4.06H274.29z"/>
</g>
</svg>
