<svg viewBox="0 0 114 41" fill="none" xmlns="http://www.w3.org/2000/svg">
<path d="M28.3 30.7H11.7C9.7 30.7 8.2 29.1 8.2 27.1C8.2 25.1 9.8 23.5 11.7 23.5H25.9C27.1 23.5 28.1 22.6 28.4 21.5L32 2.89999H40.2C40.8 2.89999 41.3 3.39999 41.3 4.09999C41.3 4.79999 40.8 5.29999 40.2 5.29999H33.9L30.6 22C30.2 24.3 28.2 26 25.9 26H11.7C11 26 10.5 26.6 10.5 27.2C10.5 27.8 11 28.4 11.7 28.4H28.3C28.9 28.4 29.4 28.9 29.4 29.6C29.4 30.1 28.9 30.7 28.3 30.7Z" fill="white"/>
<path d="M13.4 38.2C15.1 38.2 16.6 36.7 16.6 35C16.6 33.2 15.2 31.8 13.4 31.8C11.6 31.8 10.2 33.3 10.2 35C10.3 36.7 11.7 38.2 13.4 38.2Z" fill="white"/>
<path d="M24.3 38.2C26 38.2 27.5 36.7 27.5 35C27.5 33.2 26.1 31.8 24.3 31.8C22.5 31.8 21.1 33.3 21.1 35C21.1 36.7 22.5 38.2 24.3 38.2Z" fill="white"/>
<path d="M29.9 21H10.6C7.8 21 5.4 19.1 4.6 16.4L2.3 7.70001H32C32.5 7.70001 33 8.10001 33 8.70001C33 9.30001 32.6 9.70001 32 9.70001H4.9L6.5 15.8C7 17.7 8.7 19 10.6 19H29.9C30.4 19 30.9 19.4 30.9 20C30.9 20.5 30.4 21 29.9 21Z" fill="white"/>
<path d="M27.3 12.4H4.60001C4.30001 12.4 4.10001 12.2 4.10001 11.9C4.10001 11.6 4.30001 11.4 4.60001 11.4H27.3C27.6 11.4 27.8 11.6 27.8 11.9C27.8 12.2 27.6 12.4 27.3 12.4Z" fill="white"/>
<path d="M26.8 14H5.39999V15H26.8C27.1 15 27.3 14.8 27.3 14.5C27.4 14.2 27.1 14 26.8 14Z" fill="white"/>
<path d="M26.3 16.6H6.10001V17.6H26.3C26.6 17.6 26.8 17.4 26.8 17.1C26.8 16.8 26.5 16.6 26.3 16.6Z" fill="white"/>
<path d="M51.6 17.2C50.8 22 47.1 25.1 42.1 25.1H37.5L34.9 37.8H30.1L36 8.70001H40.8H45C49.1 8.70001 52.4 12.7 51.6 17.2ZM44.1 13.2H39.9L38.2 20.5H42.8C44.8 20.5 46.5 18.9 46.8 16.8C47.3 14.8 46 13.2 44.1 13.2Z" fill="white"/>
<path d="M53.4 16.8C54.3 11.9 58.4 8 63.8 8C69.3 8 72.3 12.8 71.4 17.8C70.6 22.8 66.2 26.6 61.2 26.6C55.4 26.7 52.4 21.9 53.4 16.8ZM67 17.3C67.5 14.3 65.7 12.5 63.2 12.5C60.7 12.5 58.4 14.3 57.8 17.4C57.3 20.4 59 22.3 61.5 22.3C64 22.3 66.6 20.4 67 17.3Z" fill="white"/>
<path d="M81.6 26.7C76.4 26.7 73 22.3 73.9 17.1C74.8 11.9 79 8.10001 84.3 8.10001C88.5 8.10001 91.8 11.1 91.9 15H87.2C86.9 13.5 85.6 12.6 83.8 12.6C81.1 12.6 78.8 14.6 78.4 17.4C77.9 20.2 79.5 22.2 82.2 22.2C84 22.2 85.6 21.4 86.5 19.8H91.2C89.7 24 86 26.7 81.6 26.7Z" fill="white"/>
<path d="M93.4 16.8C94.3 11.9 98.4 8 103.8 8C109.3 8 112.3 12.8 111.4 17.8C110.6 22.8 106.2 26.6 101.2 26.6C95.3 26.7 92.4 21.9 93.4 16.8ZM107 17.3C107.5 14.3 105.8 12.5 103.2 12.5C100.7 12.5 98.4 14.3 97.8 17.4C97.3 20.4 99 22.3 101.5 22.3C104 22.3 106.5 20.4 107 17.3Z" fill="white"/>
<path d="M63.4 31.9C63.7 32.2 63.8 32.5 63.8 33C63.8 33.1 63.8 33.3 63.8 33.4L63.1 37.2H62.1L62.7 33.4C62.7 33.3 62.7 33.2 62.7 33.1C62.7 32.8 62.6 32.6 62.5 32.5C62.3 32.4 62.1 32.3 61.9 32.3C61.6 32.3 61.3 32.4 61 32.6C60.7 32.8 60.5 33.2 60.5 33.6L60 37.3H59L59.6 33.5C59.6 33.4 59.6 33.3 59.6 33.2C59.6 32.9 59.5 32.7 59.4 32.6C59.2 32.5 59 32.4 58.8 32.4C58.5 32.4 58.2 32.5 57.9 32.7C57.6 32.9 57.4 33.3 57.4 33.7L56.8 37.2H55.8L56.8 31.6H57.8L57.7 32.2C58.1 31.7 58.6 31.5 59.2 31.5C59.5 31.5 59.7 31.6 59.9 31.7C60.1 31.9 60.3 32.1 60.4 32.3C60.9 31.7 61.5 31.5 62.2 31.5C62.8 31.5 63.1 31.6 63.4 31.9Z" fill="white"/>
<path d="M69.1 31.8C69.5 32 69.7 32.3 69.9 32.7C70.1 33.1 70.2 33.5 70.2 33.9C70.2 34.1 70.2 34.3 70.2 34.4C70.2 34.6 70.1 34.8 70.1 34.8H69.2H65.6C65.6 35.3 65.8 35.7 66 36C66.3 36.3 66.7 36.4 67.2 36.4C67.6 36.4 67.9 36.3 68.2 36.2C68.5 36 68.7 35.8 68.9 35.6H69.9C69.7 36.1 69.3 36.6 68.8 36.8C68.3 37.1 67.7 37.3 67.1 37.3C66.6 37.3 66.2 37.2 65.8 37C65.4 36.8 65.1 36.5 64.9 36.1C64.7 35.7 64.6 35.3 64.6 34.8C64.6 34.6 64.6 34.4 64.6 34.2C64.7 33.6 64.9 33.2 65.2 32.7C65.5 32.3 65.9 31.9 66.3 31.7C66.7 31.5 67.3 31.3 67.8 31.3C68.4 31.5 68.8 31.6 69.1 31.8ZM69.3 34C69.3 33.5 69.2 33.1 68.9 32.8C68.6 32.5 68.3 32.4 67.8 32.4C67.3 32.4 66.8 32.6 66.4 32.8C66 33.1 65.8 33.5 65.6 34H69.3Z" fill="white"/>
<path d="M77.3 31.6L76.3 37C76.1 37.9 75.8 38.6 75.2 39C74.6 39.4 73.9 39.6 73.1 39.6C72.7 39.6 72.3 39.5 71.9 39.4C71.5 39.3 71.3 39 71 38.7C70.8 38.4 70.7 38.1 70.7 37.7V37.5H71.6C71.6 37.7 71.6 37.9 71.7 38.1C71.8 38.3 72 38.5 72.2 38.6C72.4 38.7 72.7 38.8 73.1 38.8C73.7 38.8 74.2 38.6 74.5 38.3C74.8 38 75.1 37.6 75.2 37L75.3 36.3C75 36.6 74.7 36.9 74.3 37C73.9 37.1 73.5 37.2 73 37.2C72.5 37.2 72.1 37.1 71.8 36.9C71.4 36.7 71.2 36.4 70.9 36C70.7 35.6 70.6 35.2 70.6 34.7C70.6 34.5 70.6 34.3 70.6 34.2C70.7 33.6 70.9 33.1 71.2 32.7C71.5 32.3 71.9 31.9 72.3 31.7C72.8 31.5 73.2 31.4 73.7 31.4C74.2 31.4 74.6 31.5 75 31.7C75.4 31.9 75.6 32.2 75.8 32.6L76 31.5H77.3V31.6ZM74.6 36.2C74.9 36 75.2 35.8 75.4 35.6C75.6 35.3 75.8 35 75.8 34.6V34.4C75.8 34.3 75.8 34.2 75.8 34.1C75.8 33.6 75.6 33.2 75.3 32.9C75 32.6 74.6 32.5 74.1 32.5C73.7 32.5 73.4 32.6 73.1 32.7C72.8 32.9 72.5 33.1 72.3 33.4C72.1 33.7 71.9 34 71.9 34.5C71.9 34.6 71.9 34.7 71.9 34.9C71.9 35.4 72.1 35.8 72.4 36.1C72.7 36.4 73.1 36.6 73.6 36.6C73.9 36.4 74.3 36.4 74.6 36.2Z" fill="white"/>
<path d="M82.1 32C82.5 32.3 82.6 32.8 82.6 33.3C82.6 33.4 82.6 33.5 82.6 33.7L82 37.3H81L81.1 36.8C80.7 37.2 80.1 37.5 79.5 37.5C79.2 37.5 78.9 37.4 78.6 37.3C78.3 37.2 78.1 37 78 36.7C77.8 36.5 77.8 36.2 77.8 35.9C77.8 35.8 77.8 35.7 77.8 35.6C77.9 35 78.2 34.6 78.6 34.3C79 34 79.5 33.9 80 33.9C80.3 33.9 80.6 34 80.9 34.1C81.2 34.2 81.4 34.4 81.5 34.6L81.7 33.8C81.7 33.7 81.7 33.6 81.7 33.5C81.7 33.2 81.6 32.9 81.4 32.8C81.2 32.6 81 32.6 80.7 32.6C80.3 32.6 80.1 32.7 79.8 32.8C79.6 33 79.4 33.2 79.3 33.5H78.4C78.5 32.9 78.8 32.5 79.2 32.1C79.6 31.7 80.2 31.6 80.8 31.6C81.3 31.5 81.8 31.7 82.1 32ZM80.9 36.3C81.2 36.1 81.3 35.8 81.3 35.5C81.3 35.3 81.2 35.1 80.9 34.9C80.7 34.7 80.4 34.7 80 34.7C79.6 34.7 79.3 34.8 79 34.9C78.8 35.1 78.6 35.3 78.6 35.6C78.6 35.6 78.6 35.7 78.6 35.8C78.6 36 78.7 36.2 78.9 36.4C79.1 36.6 79.4 36.6 79.7 36.6C80.2 36.6 80.6 36.5 80.9 36.3Z" fill="white"/>
<path d="M89.6 33.4C89.6 33.3 89.6 33.2 89.6 33.2C89.6 33 89.5 32.8 89.3 32.6C89.1 32.5 88.9 32.4 88.7 32.4C88.4 32.4 88.1 32.5 87.9 32.6C87.7 32.8 87.5 33 87.5 33.2C87.5 33.4 87.6 33.6 87.8 33.7C88 33.8 88.3 33.9 88.7 34.1C89.1 34.2 89.3 34.3 89.5 34.4C89.7 34.5 89.9 34.6 90 34.8C90.2 35 90.2 35.2 90.2 35.5C90.2 36.1 90 36.5 89.5 36.9C89.1 37.3 88.5 37.4 87.8 37.4C87.3 37.4 86.8 37.3 86.4 37C86 36.7 85.9 36.4 85.9 35.9C85.9 35.8 85.9 35.7 85.9 35.5H86.8C86.8 35.6 86.8 35.7 86.8 35.7C86.8 35.9 86.9 36.1 87.1 36.3C87.3 36.4 87.5 36.5 87.8 36.5C88.2 36.5 88.4 36.4 88.7 36.3C88.9 36.2 89.1 36 89.1 35.7V35.6C89.1 35.4 89 35.2 88.8 35.1C88.6 35 88.3 34.9 87.9 34.7C87.5 34.6 87.3 34.5 87.1 34.4C86.9 34.3 86.7 34.2 86.6 34C86.4 33.8 86.4 33.6 86.4 33.3C86.4 32.9 86.5 32.6 86.7 32.3C86.9 32 87.2 31.8 87.5 31.7C87.8 31.6 88.2 31.5 88.6 31.5C89.1 31.5 89.5 31.6 89.9 31.9C90.3 32.2 90.4 32.5 90.4 33C90.4 33.1 90.4 33.2 90.4 33.3L89.6 33.4Z" fill="white"/>
<path d="M94.5 32.6H93.4L92.6 37.3H91.6L92.4 32.6H91.3L91.5 31.6H92.6L92.9 29.8H93.9L93.6 31.6H94.7L94.5 32.6Z" fill="white"/>
<path d="M95.8 37.1C95.4 36.9 95.1 36.6 94.9 36.2C94.7 35.8 94.6 35.4 94.6 34.9C94.6 34.7 94.6 34.5 94.6 34.3C94.7 33.7 94.9 33.2 95.3 32.8C95.7 32.4 96 32 96.5 31.8C97 31.6 97.5 31.4 98 31.4C98.5 31.4 98.9 31.5 99.3 31.7C99.7 31.9 100 32.2 100.2 32.6C100.4 33 100.5 33.4 100.5 33.9C100.5 34.1 100.5 34.3 100.5 34.5C100.4 35.1 100.2 35.6 99.9 36.1C99.5 36.5 99.2 36.9 98.7 37.1C98.2 37.3 97.7 37.5 97.3 37.5C96.6 37.4 96.1 37.3 95.8 37.1ZM98.1 36.2C98.4 36 98.7 35.8 99 35.5C99.2 35.2 99.4 34.8 99.5 34.4C99.5 34.2 99.5 34.1 99.5 34C99.5 33.5 99.3 33.1 99 32.8C98.7 32.5 98.3 32.4 97.8 32.4C97.4 32.4 97.1 32.5 96.8 32.6C96.5 32.8 96.2 33 96 33.3C95.8 33.6 95.6 34 95.5 34.4C95.5 34.6 95.5 34.7 95.5 34.8C95.5 35.3 95.7 35.7 96 36C96.3 36.3 96.7 36.4 97.1 36.4C97.5 36.5 97.8 36.4 98.1 36.2Z" fill="white"/>
<path d="M104.7 31.6L104.5 32.6C104 32.6 103.6 32.7 103.2 33C102.8 33.3 102.6 33.7 102.5 34.3L102 37.3H101L102 31.7H103L102.9 32.5C103.3 31.8 103.9 31.5 104.7 31.6Z" fill="white"/>
<path d="M109 31.8C109.4 32 109.6 32.3 109.8 32.7C110 33.1 110.1 33.5 110.1 33.9C110.1 34.1 110.1 34.3 110.1 34.4C110.1 34.6 110 34.8 110 34.8H109H105.4C105.4 35.3 105.6 35.7 105.8 36C106.1 36.3 106.5 36.4 107 36.4C107.4 36.4 107.7 36.3 108 36.2C108.3 36 108.5 35.8 108.7 35.6H109.7C109.5 36.1 109.1 36.6 108.6 36.8C108.1 37.1 107.5 37.3 106.9 37.3C106.4 37.3 106 37.2 105.7 37C105.4 36.8 105 36.5 104.8 36.1C104.6 35.7 104.5 35.3 104.5 34.8C104.5 34.6 104.5 34.4 104.5 34.2C104.6 33.6 104.8 33.2 105.1 32.7C105.4 32.3 105.8 31.9 106.2 31.7C106.6 31.5 107.2 31.3 107.7 31.3C108.2 31.5 108.6 31.6 109 31.8ZM109.2 34C109.2 33.5 109.1 33.1 108.8 32.8C108.5 32.5 108.2 32.4 107.7 32.4C107.2 32.4 106.7 32.6 106.3 32.8C105.9 33.1 105.7 33.5 105.5 34H109.2Z" fill="white"/>
</svg>
