<svg viewBox="0 0 174 62" fill="none" xmlns="http://www.w3.org/2000/svg">
<path d="M43.1272 46.3942H17.8354C14.8529 46.3942 12.4669 43.9746 12.4669 40.9502C12.4669 37.9259 14.8529 35.5063 17.8354 35.5063H39.4885C41.278 35.5063 42.8886 34.1756 43.2465 32.4215L48.794 4.35513H61.3205C62.2749 4.35513 63.0504 5.14147 63.0504 6.10928C63.0504 7.07708 62.2749 7.86343 61.3205 7.86343H51.6572L46.6465 33.0868C45.9904 36.5346 42.9482 39.0751 39.4289 39.0751H17.8354C16.8214 39.0751 15.9863 39.922 15.9863 40.9502C15.9863 41.9785 16.8214 42.8254 17.8354 42.8254H43.1272C44.0816 42.8254 44.857 43.6117 44.857 44.5795C44.857 45.5473 44.0816 46.3942 43.1272 46.3942Z" fill="#1C91D3"/>
<path d="M20.5197 57.7054C23.1882 57.7054 25.3514 55.5118 25.3514 52.8058C25.3514 50.0999 23.1882 47.9063 20.5197 47.9063C17.8513 47.9063 15.688 50.0999 15.688 52.8058C15.688 55.5118 17.8513 57.7054 20.5197 57.7054Z" fill="#1C91D3"/>
<path d="M37.0428 57.7054C39.7113 57.7054 41.8745 55.5118 41.8745 52.8058C41.8745 50.0999 39.7113 47.9063 37.0428 47.9063C34.3744 47.9063 32.2112 50.0999 32.2112 52.8058C32.2112 55.5118 34.3744 57.7054 37.0428 57.7054Z" fill="#1C91D3"/>
<path d="M45.6325 31.7561H16.2249C11.9897 31.7561 8.23175 28.8527 7.0984 24.7395L3.51938 11.6742H48.8536C49.6887 11.6742 50.3449 12.3395 50.3449 13.1864C50.3449 14.0332 49.6887 14.6986 48.8536 14.6986H7.4563L9.96161 23.8927C10.7371 26.7356 13.302 28.6712 16.1652 28.6712H45.5729C46.408 28.6712 47.0641 29.3366 47.0641 30.1834C47.1238 31.0303 46.408 31.7561 45.6325 31.7561Z" fill="#1C91D3"/>
<path d="M41.6359 18.6908H7.03873C6.62118 18.6908 6.26328 18.3278 6.26328 17.9044C6.26328 17.481 6.62118 17.1181 7.03873 17.1181H41.6359C42.0535 17.1181 42.4114 17.481 42.4114 17.9044C42.4114 18.3278 42.0535 18.6908 41.6359 18.6908Z" fill="#1C91D3"/>
<path d="M40.9798 21.1103H8.29141V22.6225H40.9798C41.3973 22.6225 41.7552 22.2595 41.7552 21.8361C41.7552 21.4127 41.3973 21.1103 40.9798 21.1103Z" fill="#1C91D3"/>
<path d="M40.085 25.042H9.2458V26.5542H40.1447C40.5622 26.5542 40.9201 26.1912 40.9201 25.7678C40.8605 25.4049 40.5026 25.042 40.085 25.042Z" fill="#1C91D3"/>
<path d="M78.7981 26.0702C77.5454 33.3288 71.9383 37.9863 64.2434 37.9863H57.2046L53.2677 57.161H45.9904L54.8783 13.1863H62.1556H68.5979C74.9804 13.1863 79.9911 19.2351 78.7981 26.0702ZM67.2855 20.0215H60.8433L58.2783 31.0302H65.3171C68.4189 31.0302 70.9242 28.5502 71.4611 25.4654C72.1769 22.441 70.2681 20.0215 67.2855 20.0215Z" fill="black"/>
<path d="M81.542 25.4048C82.9736 17.9648 89.1772 12.158 97.409 12.158C105.76 12.158 110.413 19.3561 109.041 26.917C107.788 34.4175 101.167 40.2848 93.5317 40.2848C84.5245 40.3453 80.0507 33.0868 81.542 25.4048ZM102.3 26.1912C103.135 21.6546 100.392 18.8722 96.5739 18.8722C92.7563 18.8722 89.1772 21.6546 88.3421 26.2517C87.5667 30.8487 90.1913 33.6312 94.0089 33.6312C97.8265 33.6312 101.585 30.8487 102.3 26.1912Z" fill="black"/>
<path d="M124.49 40.3454C116.557 40.3454 111.367 33.6312 112.739 25.7678C114.111 17.8439 120.494 12.2185 128.606 12.2185C134.989 12.2185 140.119 16.8156 140.238 22.6829H133.14C132.662 20.3844 130.694 18.9932 127.89 18.9932C123.834 18.9932 120.315 21.9571 119.599 26.2517C118.883 30.4859 121.329 33.5707 125.385 33.5707C128.189 33.5707 130.634 32.4215 131.887 29.881H139.045C136.957 36.2322 131.231 40.3454 124.49 40.3454Z" fill="black"/>
<path d="M142.505 25.4048C143.936 17.9648 150.14 12.158 158.372 12.158C166.723 12.158 171.375 19.3561 170.003 26.917C168.751 34.4175 162.13 40.2848 154.494 40.2848C145.487 40.3453 141.073 33.0868 142.505 25.4048ZM163.263 26.1912C164.098 21.6546 161.354 18.8722 157.537 18.8722C153.719 18.8722 150.14 21.6546 149.305 26.2517C148.529 30.8487 151.154 33.6312 154.972 33.6312C158.789 33.6312 162.547 30.8487 163.263 26.1912Z" fill="black"/>
<path d="M96.7528 48.2693C97.1704 48.6927 97.409 49.2371 97.409 49.9629C97.409 50.1444 97.409 50.3863 97.3493 50.6283L96.3353 56.3746H94.844L95.7984 50.6888C95.8581 50.5073 95.8581 50.3863 95.8581 50.2654C95.8581 49.842 95.7388 49.5395 95.5002 49.3581C95.2616 49.1766 94.9633 49.0556 94.6054 49.0556C94.1282 49.0556 93.7106 49.2371 93.2931 49.5395C92.8755 49.842 92.5773 50.3863 92.458 51.1122L91.5632 56.3746H90.072L91.0264 50.6888C91.0264 50.5678 91.086 50.4468 91.086 50.2654C91.086 49.842 90.9667 49.5395 90.7281 49.3581C90.4895 49.1766 90.1913 49.0556 89.8334 49.0556C89.3562 49.0556 88.9386 49.2371 88.5211 49.5395C88.1035 49.842 87.8053 50.3863 87.686 51.0517L86.7912 56.3746H85.3L86.7912 47.8459H88.2825L88.1632 48.6927C88.8193 47.9668 89.5948 47.6644 90.4895 47.6644C90.9071 47.6644 91.265 47.7854 91.6229 48.0273C91.9808 48.2693 92.2194 48.5717 92.3983 48.9951C93.1141 48.1483 94.0089 47.7249 95.0826 47.7249C95.7984 47.6644 96.3353 47.8459 96.7528 48.2693Z" fill="#777777"/>
<path d="M105.521 48.1483C106.058 48.4507 106.476 48.9346 106.774 49.479C107.072 50.0234 107.192 50.6888 107.192 51.3541C107.192 51.6566 107.192 51.8985 107.132 52.1405C107.072 52.4429 107.013 52.6849 106.953 52.8058H105.521H100.034C100.034 53.5922 100.272 54.1971 100.69 54.6205C101.107 55.0439 101.704 55.2858 102.479 55.2858C103.016 55.2858 103.493 55.1649 103.971 54.9229C104.388 54.681 104.746 54.3785 104.985 54.0156H106.535C106.178 54.8019 105.581 55.4673 104.865 55.8907C104.149 56.3746 103.255 56.6166 102.3 56.6166C101.585 56.6166 100.928 56.4351 100.391 56.1327C99.8546 55.8302 99.3774 55.3463 99.0792 54.8019C98.7809 54.2576 98.602 53.5922 98.602 52.8663C98.602 52.6244 98.602 52.3219 98.6616 52.0195C98.7809 51.1727 99.1388 50.4468 99.5564 49.7815C99.9739 49.1161 100.57 48.6322 101.286 48.2693C102.002 47.9063 102.778 47.7249 103.613 47.7249C104.328 47.6644 104.985 47.7854 105.521 48.1483ZM105.76 51.4751C105.76 50.6888 105.581 50.0839 105.164 49.6605C104.746 49.2371 104.209 49.0556 103.553 49.0556C102.718 49.0556 102.062 49.2976 101.465 49.721C100.869 50.1444 100.511 50.7493 100.272 51.5356H105.76V51.4751Z" fill="#777777"/>
<path d="M117.929 47.8459L116.497 56.0117C116.258 57.3424 115.722 58.3707 114.827 59.0361C113.932 59.7015 112.858 60.0039 111.606 60.0039C110.95 60.0039 110.353 59.8829 109.816 59.641C109.279 59.399 108.862 59.0361 108.504 58.6127C108.206 58.1288 108.027 57.6449 108.027 57.04V56.798H109.458C109.399 57.1005 109.518 57.4029 109.637 57.7054C109.816 58.0078 110.055 58.2498 110.413 58.4312C110.771 58.6127 111.188 58.7337 111.725 58.7337C112.62 58.7337 113.336 58.4917 113.932 58.0078C114.529 57.5239 114.827 56.919 115.006 56.0722L115.185 55.0439C114.767 55.5278 114.29 55.8907 113.694 56.1327C113.097 56.3746 112.501 56.4956 111.785 56.4956C111.069 56.4956 110.472 56.3141 109.936 56.0117C109.399 55.7093 108.981 55.2254 108.623 54.6205C108.325 54.0156 108.146 53.4107 108.146 52.6849C108.146 52.3824 108.146 52.1405 108.206 51.8985C108.385 51.0517 108.683 50.2654 109.16 49.6605C109.637 48.9951 110.174 48.5112 110.89 48.1483C111.606 47.7854 112.262 47.6644 112.978 47.6644C113.694 47.6644 114.29 47.8459 114.887 48.1483C115.483 48.4507 115.841 48.9346 116.139 49.479L116.437 47.8459H117.929ZM113.813 54.7415C114.29 54.4995 114.708 54.1971 115.065 53.7737C115.423 53.3502 115.602 52.8663 115.722 52.322V52.0195C115.722 51.8985 115.781 51.7171 115.781 51.5356C115.781 50.7493 115.543 50.1444 115.006 49.721C114.529 49.2976 113.872 49.0556 113.157 49.0556C112.62 49.0556 112.143 49.1766 111.665 49.4185C111.188 49.6605 110.771 49.9629 110.413 50.4468C110.055 50.9307 109.816 51.4146 109.757 52.08C109.697 52.2615 109.697 52.4429 109.697 52.6244C109.697 53.3502 109.936 53.9551 110.413 54.439C110.89 54.9229 111.486 55.1649 112.262 55.1649C112.799 55.1044 113.336 54.9834 113.813 54.7415Z" fill="#777777"/>
<path d="M125.325 48.3902C125.862 48.8741 126.101 49.5395 126.101 50.3258C126.101 50.5073 126.101 50.6888 126.041 50.9307L125.087 56.4351H123.655L123.774 55.6488C123.118 56.3141 122.283 56.6771 121.269 56.6771C120.792 56.6771 120.374 56.5561 119.957 56.3746C119.539 56.1932 119.241 55.8907 119.002 55.5278C118.764 55.1649 118.644 54.7414 118.644 54.2575C118.644 54.0761 118.644 53.8946 118.704 53.7736C118.823 52.9268 119.241 52.2614 119.897 51.838C120.553 51.4146 121.269 51.1727 122.104 51.1727C122.581 51.1727 123.059 51.2936 123.476 51.4751C123.894 51.6566 124.192 51.959 124.431 52.2614L124.669 50.9912C124.669 50.8702 124.729 50.7493 124.729 50.5073C124.729 50.0234 124.61 49.6605 124.311 49.4185C124.013 49.1766 123.655 49.0556 123.178 49.0556C122.641 49.0556 122.224 49.1766 121.806 49.4185C121.448 49.6605 121.209 50.0234 121.09 50.5073H119.659C119.838 49.6 120.255 48.9346 120.911 48.3902C121.567 47.8458 122.402 47.6039 123.417 47.6039C124.132 47.6644 124.788 47.9063 125.325 48.3902ZM123.417 54.8624C123.894 54.56 124.073 54.1366 124.073 53.6527C124.073 53.2897 123.894 52.9873 123.536 52.7453C123.178 52.5034 122.76 52.3824 122.224 52.3824C121.567 52.3824 121.09 52.5034 120.732 52.7453C120.374 52.9873 120.136 53.3502 120.076 53.7736C120.076 53.8341 120.076 53.8946 120.076 54.0156C120.076 54.3785 120.195 54.681 120.494 54.9229C120.792 55.1649 121.209 55.2858 121.746 55.2858C122.402 55.3463 122.999 55.1649 123.417 54.8624Z" fill="#777777"/>
<path d="M136.778 50.4468C136.778 50.3258 136.838 50.2049 136.838 50.1444C136.838 49.7814 136.719 49.479 136.42 49.2975C136.182 49.1161 135.824 48.9951 135.466 48.9951C134.989 48.9951 134.571 49.1161 134.213 49.2975C133.855 49.5395 133.676 49.8419 133.676 50.2653C133.676 50.5678 133.796 50.8097 134.094 50.9912C134.392 51.1727 134.81 51.3541 135.406 51.5356C135.943 51.7171 136.361 51.838 136.659 52.0195C137.017 52.201 137.255 52.3824 137.494 52.6849C137.733 52.9873 137.852 53.3502 137.852 53.7736C137.852 54.6205 137.494 55.3463 136.838 55.8907C136.182 56.4351 135.287 56.6771 134.273 56.6771C133.438 56.6771 132.722 56.4956 132.185 56.0722C131.648 55.6488 131.41 55.1044 131.41 54.439C131.41 54.2575 131.41 54.0761 131.469 53.8946H132.901C132.901 54.0156 132.841 54.1366 132.841 54.1971C132.841 54.56 132.961 54.8624 133.259 55.0439C133.557 55.2254 133.915 55.2858 134.392 55.2858C134.929 55.2858 135.347 55.1649 135.705 54.9834C136.062 54.8019 136.301 54.4995 136.361 54.1366C136.361 54.0761 136.361 54.0156 136.361 53.9551C136.361 53.6527 136.241 53.4107 135.943 53.2293C135.645 53.0478 135.227 52.8663 134.631 52.6849C134.094 52.5034 133.676 52.3824 133.378 52.201C133.08 52.0195 132.782 51.838 132.543 51.5356C132.304 51.2332 132.185 50.8702 132.185 50.4468C132.185 49.8419 132.364 49.358 132.662 48.9346C132.961 48.5112 133.378 48.2088 133.915 47.9668C134.452 47.7249 134.989 47.6039 135.645 47.6039C136.42 47.6039 137.076 47.7853 137.613 48.2088C138.15 48.6322 138.389 49.1766 138.389 49.8419C138.389 49.9629 138.389 50.1444 138.329 50.3258H136.778V50.4468Z" fill="#777777"/>
<path d="M144.175 49.2976H142.564L141.312 56.3746H139.82L141.073 49.2976H139.403L139.641 47.8459H141.312L141.789 45.1239H143.28L142.803 47.8459H144.473L144.175 49.2976Z" fill="#777777"/>
<path d="M146.203 56.1327C145.606 55.8302 145.129 55.4068 144.831 54.8019C144.473 54.2575 144.354 53.5922 144.354 52.8058C144.354 52.5639 144.354 52.2614 144.413 51.959C144.592 51.0517 144.891 50.3258 145.427 49.6605C145.964 48.9951 146.561 48.5112 147.277 48.1483C147.992 47.7853 148.768 47.6039 149.543 47.6039C150.259 47.6039 150.856 47.7853 151.452 48.0878C151.989 48.3902 152.466 48.8136 152.824 49.4185C153.182 49.9629 153.301 50.6283 153.301 51.3541C153.301 51.5961 153.301 51.8985 153.242 52.201C153.122 53.1083 152.764 53.8946 152.287 54.56C151.75 55.2253 151.154 55.7093 150.438 56.0722C149.722 56.4351 148.947 56.6166 148.231 56.6166C147.396 56.6166 146.74 56.4351 146.203 56.1327ZM149.782 54.8019C150.259 54.56 150.736 54.1971 151.094 53.7736C151.452 53.2897 151.691 52.7453 151.81 52.08C151.87 51.838 151.87 51.6566 151.87 51.4751C151.87 50.7492 151.631 50.1444 151.154 49.721C150.677 49.2975 150.08 49.1161 149.364 49.1161C148.828 49.1161 148.35 49.2371 147.873 49.479C147.396 49.721 146.978 50.0839 146.621 50.5073C146.263 50.9912 146.024 51.5356 145.905 52.1405C145.845 52.3824 145.845 52.5639 145.845 52.7453C145.845 53.5317 146.084 54.0761 146.561 54.4995C147.038 54.9229 147.635 55.1649 148.291 55.1649C148.768 55.1649 149.245 55.0439 149.782 54.8019Z" fill="#777777"/>
<path d="M159.744 47.7249L159.445 49.2976C158.73 49.2371 158.133 49.479 157.537 49.9025C156.94 50.3259 156.642 50.9912 156.463 51.8986L155.687 56.4351H154.196L155.687 47.9064H157.179L157 49.0556C157.656 48.0878 158.551 47.6644 159.744 47.7249Z" fill="#777777"/>
<path d="M166.365 48.1483C166.902 48.4507 167.319 48.9346 167.617 49.479C167.916 50.0234 168.035 50.6888 168.035 51.3541C168.035 51.6566 168.035 51.8985 167.975 52.1405C167.916 52.4429 167.856 52.6849 167.796 52.8058H166.365H160.877C160.877 53.5922 161.116 54.1971 161.533 54.6205C161.951 55.0439 162.547 55.2858 163.323 55.2858C163.859 55.2858 164.337 55.1649 164.814 54.9229C165.231 54.681 165.589 54.3785 165.828 54.0156H167.379C167.021 54.8019 166.424 55.4673 165.709 55.8907C164.993 56.3746 164.098 56.6166 163.144 56.6166C162.428 56.6166 161.772 56.4351 161.235 56.1327C160.698 55.8302 160.221 55.3463 159.923 54.8019C159.624 54.2576 159.445 53.5922 159.445 52.8663C159.445 52.6244 159.445 52.3219 159.505 52.0195C159.624 51.1727 159.982 50.4468 160.4 49.7815C160.877 49.1161 161.414 48.6322 162.13 48.2693C162.845 47.9063 163.621 47.7249 164.456 47.7249C165.172 47.6644 165.828 47.7854 166.365 48.1483ZM166.603 51.4751C166.603 50.6888 166.424 50.0839 166.007 49.6605C165.589 49.2371 165.052 49.0556 164.396 49.0556C163.561 49.0556 162.905 49.2976 162.309 49.721C161.712 50.1444 161.354 50.7493 161.116 51.5356H166.603V51.4751Z" fill="#777777"/>
</svg>
