<svg xmlns="http://www.w3.org/2000/svg" viewBox="0 0 279.54 93.04"><defs><style>.cls-1{fill:#debd20;}.cls-2{fill:#fff;}.cls-3{font-size:28.17px;fill:#6880a0;font-family:Qanelas-MediumItalic, Qanelas;font-weight:500;font-style:italic;}.cls-4{letter-spacing:-0.01em;}.cls-5{letter-spacing:-0.02em;}.cls-6{letter-spacing:-0.03em;}</style></defs><path class="cls-1" d="M67,71.47H24.5a9,9,0,0,1,0-18H60.85a6.44,6.44,0,0,0,6.29-5.15L76.44,2h21a2.94,2.94,0,0,1,0,5.88H81.27L72.91,49.52a12.33,12.33,0,0,1-12.06,9.87H24.5a3.1,3.1,0,0,0,0,6.19H67a2.95,2.95,0,0,1,0,5.89Z" transform="translate(-0.52 -1.98)"/><circle class="cls-1" cx="28.54" cy="80.12" r="8.06"/><circle class="cls-1" cx="56.22" cy="80.12" r="8.06"/><path class="cls-1" d="M71.1,47.26H21.83A15.91,15.91,0,0,1,6.54,35.65L.52,14h76a2.52,2.52,0,1,1,0,5H7.16L11.4,34.3a10.87,10.87,0,0,0,10.43,7.92H71.1a2.52,2.52,0,1,1,0,5Z" transform="translate(-0.52 -1.98)"/><path class="cls-1" d="M64.46,25.68h-58a1.26,1.26,0,0,1,0-2.52h58a1.26,1.26,0,1,1,0,2.52Z" transform="translate(-0.52 -1.98)"/><path class="cls-1" d="M63.34,29.68H8.53V32.2H63.34a1.26,1.26,0,1,0,0-2.52Z" transform="translate(-0.52 -1.98)"/><path class="cls-1" d="M61.87,36.2H10.11v2.52H61.87a1.26,1.26,0,1,0,0-2.52Z" transform="translate(-0.52 -1.98)"/><path class="cls-2" d="M126.71,37.91c-2.12,12-11.55,19.65-24.41,19.65H90.55L83.94,89.27H71.78L86.61,16.58h22.91C120.36,16.58,128.74,26.63,126.71,37.91ZM107.5,28H96.75L92.49,46.19h11.84A10.75,10.75,0,0,0,114.64,37C115.61,31.91,112.43,28,107.5,28Z" transform="translate(-0.52 -1.98)"/><path class="cls-2" d="M131.36,36.83A26.66,26.66,0,0,1,158,15c14,0,21.76,11.9,19.47,24.41a26.77,26.77,0,0,1-26,22.12C136.38,61.5,128.89,49.52,131.36,36.83Zm34.8,1.32c1.41-7.49-3.17-12.07-9.6-12.07s-12.43,4.58-13.84,12.16,3.09,12.16,9.52,12.16A14.18,14.18,0,0,0,166.16,38.15Z" transform="translate(-0.52 -1.98)"/><path class="cls-2" d="M203.35,61.5c-13.31,0-22-11.1-19.74-24.15A26.53,26.53,0,0,1,210.22,15c10.67,0,19.3,7.58,19.48,17.27H217.8c-.79-3.79-4.05-6.08-8.81-6.08a14.23,14.23,0,0,0-13.92,12c-1.24,7,2.9,12.07,9.69,12.07,4.67,0,8.81-1.94,10.93-6.08h12A25.08,25.08,0,0,1,203.35,61.5Z" transform="translate(-0.52 -1.98)"/><path class="cls-2" d="M233.58,36.83A26.66,26.66,0,0,1,260.19,15c14,0,21.76,11.9,19.47,24.41a26.78,26.78,0,0,1-26,22.12C238.6,61.5,231.11,49.52,233.58,36.83Zm34.8,1.32c1.41-7.49-3.17-12.07-9.6-12.07s-12.43,4.58-13.84,12.16S248,50.4,254.46,50.4A14.18,14.18,0,0,0,268.38,38.15Z" transform="translate(-0.52 -1.98)"/><text class="cls-3" transform="translate(136.79 86.05)">mega <tspan class="cls-4" x="76.89" y="0">s</tspan><tspan class="cls-5" x="89.73" y="0">t</tspan><tspan x="98.27" y="0">o</tspan><tspan class="cls-6" x="115.26" y="0">r</tspan><tspan x="123.63" y="0">e</tspan></text></svg>