<svg enable-background="new 0 0 512 512" viewBox="0 0 512 512" xmlns="http://www.w3.org/2000/svg"><g><path d="m467 45.998h-422c-24.813 0-45 20.187-45 45v150c0 24.813 20.187 45 45 45h422c24.813 0 45-20.187 45-45v-150c0-24.813-20.187-45-45-45zm15 195c0 8.271-6.729 15-15 15h-422c-8.271 0-15-6.729-15-15v-150c0-8.271 6.729-15 15-15h422c8.271 0 15 6.729 15 15z"/><path d="m437 195.998h-362c-8.284 0-15 6.716-15 15s6.716 15 15 15h362c8.284 0 15-6.716 15-15s-6.716-15-15-15z"/><circle cx="377" cy="150.998" r="15"/><circle cx="437" cy="150.998" r="15"/><path d="m82.708 464.415c41.833-20.917 68.292-63.683 68.292-110.499v-22.918c0-8.284-6.716-15-15-15s-15 6.716-15 15v22.918c0 35.66-19.813 67.718-51.708 83.666-7.41 3.705-10.413 12.715-6.708 20.125 3.705 7.411 12.716 10.412 20.124 6.708z"/><path d="m376 315.998c-8.284 0-15 6.716-15 15v22.918c0 46.774 26.418 89.562 68.292 110.499 7.424 3.712 16.426.687 20.124-6.708 3.705-7.41.702-16.419-6.708-20.125-31.895-15.948-51.708-48.006-51.708-83.666v-22.918c0-8.284-6.716-15-15-15z"/><path d="m271 450.998v-120c0-8.284-6.716-15-15-15s-15 6.716-15 15v120c0 8.284 6.716 15 15 15s15-6.716 15-15z"/><path d="m331 450.998v-120c0-8.284-6.716-15-15-15s-15 6.716-15 15v120c0 8.284 6.716 15 15 15s15-6.716 15-15z"/><path d="m211 450.998v-120c0-8.284-6.716-15-15-15s-15 6.716-15 15v120c0 8.284 6.716 15 15 15s15-6.716 15-15z"/></g></svg>