<svg viewBox="0 0 512 512" xmlns="http://www.w3.org/2000/svg"><path d="m437.019531 74.980469c-48.351562-48.351563-112.640625-74.980469-181.019531-74.980469s-132.667969 26.628906-181.019531 74.980469c-48.351563 48.351562-74.980469 112.640625-74.980469 181.019531s26.628906 132.667969 74.980469 181.019531c48.351562 48.351563 112.640625 74.980469 181.019531 74.980469s132.667969-26.628906 181.019531-74.980469c48.351563-48.351562 74.980469-112.640625 74.980469-181.019531s-26.628906-132.667969-74.980469-181.019531zm-181.019531-34.980469c93.394531 0 173.128906 59.589844 203.199219 142.738281l-137.496094 35.140625c-13.175781-22.625-37.683594-37.878906-65.703125-37.878906-28.03125 0-52.550781 15.269531-65.726562 37.914062l-137.613282-34.78125c29.964844-83.355468 109.796875-143.132812 203.339844-143.132812zm0 252c-19.851562 0-36-16.148438-36-36s16.148438-36 36-36 36 16.148438 36 36-16.148438 36-36 36zm-216-36c0-11.609375.933594-23.007812 2.703125-34.125l137.3125 34.703125c.261719 34.730469 23.933594 63.976563 55.984375 72.730469v141.757812c-109.761719-10.125-196-102.707031-196-215.066406zm236 215.066406v-141.757812c32.066406-8.757813 55.746094-38.023438 55.984375-72.773438l137.242187-35.074218c1.816407 11.25 2.773438 22.785156 2.773438 34.539062 0 112.359375-86.238281 204.941406-196 215.066406zm0 0"/></svg>