<svg version="1.1" xmlns="http://www.w3.org/2000/svg" xmlns:xlink="http://www.w3.org/1999/xlink" x="0px" y="0px"
	 viewBox="0 0 512 512" style="enable-background:new 0 0 512 512;" xml:space="preserve">
<g>
	<g>
		<path d="M256,38.886h-0.358c-5.523,0.026-9.979,4.524-9.953,10.047c0.024,5.506,4.497,9.953,9.998,9.953c0.016,0,0.032,0,0.048,0
			H256c5.523,0,10-4.477,10-10S261.523,38.886,256,38.886z"/>
	</g>
</g>
<g>
	<g>
		<path d="M417.929,67.071C374.677,23.82,317.17,0,256,0S137.323,23.82,94.071,67.071C50.819,110.322,27,167.831,27,229
			c0,50.184,15.931,97.829,46.071,137.784c28.65,37.98,69.179,66.576,114.333,80.75l8.971,56.046
			c0.777,4.851,4.962,8.419,9.875,8.419h99.502c4.913,0,9.098-3.568,9.875-8.419l8.969-56.037
			c44.877-14.095,85.154-42.39,113.785-80.035C468.879,327.409,485,279.513,485,229C485,167.831,461.18,110.323,417.929,67.071z
			 M195.147,382.304c-14.37-21.153-21.636-44.165-25.246-60.309c14.698,10.466,35.35,27.565,50.341,49.632
			c0.406,0.598,0.868,1.135,1.371,1.615c0.696,5.702,1.651,11.455,2.855,17.24h-20.936c-1.08-0.351-2.155-0.711-3.225-1.083
			C198.502,387.055,196.766,384.686,195.147,382.304z M297.224,492h-82.448l-12.988-81.145c0.828,0.213,107.595,0.213,108.424,0
			L297.224,492z M240.194,350.479c-0.02-30.319,8.738-57.524,15.755-74.449c7.042,16.916,15.836,44.104,15.856,74.421
			c0.009,12.932-1.567,26.366-4.691,40.03h-0.296h-21.637h-0.246C241.795,376.828,240.203,363.404,240.194,350.479z
			 M316.853,382.304c-1.619,2.383-3.356,4.752-5.16,7.095c-1.07,0.372-2.145,0.732-3.225,1.083h-20.892
			c1.372-6.63,2.411-13.215,3.116-19.732c15.227-22.039,36.565-39.048,51.558-49.305C338.7,337.578,331.442,360.828,316.853,382.304
			z M328.172,425.195l3.551-22.183c29.768-13.015,56.2-33.736,75.892-59.795c25.063-33.165,38.311-72.726,38.311-114.405
			c0-42.216-13.558-82.185-39.209-115.585c-24.834-32.336-60.006-56.209-99.037-67.223c-5.315-1.501-10.84,1.593-12.34,6.908
			s1.593,10.84,6.908,12.34c72.819,20.547,123.677,87.806,123.677,163.56c0,59.465-31.726,114.119-80.786,144.617
			c17.891-35.844,20.229-69.6,20.335-71.275c0.226-3.599-1.502-7.041-4.524-9.008c-3.022-1.968-6.87-2.155-10.069-0.492
			c-1.602,0.833-32.588,17.15-59.489,45.653c-3.328-50.169-25.824-88.73-26.854-90.471c-1.8-3.041-5.071-4.906-8.605-4.906
			c-0.002,0-0.005,0-0.007,0c-3.537,0.002-6.809,1.873-8.605,4.918c-1.038,1.759-23.916,41.105-26.822,92.007
			c-26.783-29.4-57.672-46.282-59.243-47.13c-3.198-1.726-7.08-1.581-10.141,0.378c-3.061,1.959-4.817,5.424-4.589,9.05
			c0.106,1.675,2.444,35.431,20.335,71.275c-49.06-30.497-80.786-85.151-80.786-144.616c0-75.361,48.395-140.708,120.424-162.607
			c5.284-1.606,8.266-7.192,6.659-12.476c-1.606-5.284-7.19-8.268-12.476-6.659c-38.142,11.596-72.418,35.613-96.516,67.627
			c-24.919,33.107-38.091,72.567-38.091,114.114c0,41.679,13.248,81.239,38.31,114.404c19.693,26.059,46.125,46.781,75.893,59.796
			l3.551,22.186C102.678,395.268,47,316.308,47,229c0-115.243,93.757-209,209-209s209,93.757,209,209
			C465,316.519,409.396,395.259,328.172,425.195z"/>
	</g>
</g>
<g>
	<g>
		<path d="M359.731,241.958l-109.71-109.711c-3.905-3.905-10.236-3.905-14.143,0c-3.905,3.905-3.905,10.237,0,14.142
			l109.711,109.712c1.953,1.953,4.512,2.929,7.071,2.929s5.119-0.976,7.071-2.929C363.636,252.196,363.636,245.864,359.731,241.958z
			"/>
	</g>
</g>
<g>
	<g>
		<path d="M214.606,162.393l-27.165-27.166c-3.905-3.905-10.237-3.905-14.143,0c-3.905,3.905-3.905,10.237,0,14.143l27.166,27.166
			c1.953,1.953,4.512,2.929,7.071,2.929c2.559,0,5.119-0.976,7.071-2.929C218.511,172.631,218.511,166.299,214.606,162.393z"/>
	</g>
</g>
<g>
	<g>
		<path d="M239.723,187.51l-0.086-0.087c-3.916-3.894-10.247-3.876-14.142,0.041c-3.894,3.916-3.876,10.248,0.041,14.142
			l0.086,0.086c1.951,1.94,4.501,2.909,7.051,2.909c2.568,0,5.137-0.984,7.091-2.949C243.658,197.736,243.64,191.404,239.723,187.51
			z"/>
	</g>
</g>
<g>
	<g>
		<path d="M291.924,239.71l-28.86-28.859c-3.905-3.905-10.237-3.905-14.142,0c-3.905,3.905-3.905,10.237,0,14.142l28.86,28.859
			c1.953,1.953,4.512,2.929,7.071,2.929s5.119-0.977,7.071-2.929C295.829,249.947,295.829,243.615,291.924,239.71z"/>
	</g>
</g>
<g>
	<g>
		<path d="M502,492H10c-5.523,0-10,4.477-10,10s4.477,10,10,10h492c5.523,0,10-4.477,10-10S507.523,492,502,492z"/>
	</g>
</g>
</svg>
