<svg version="1.1" xmlns="http://www.w3.org/2000/svg" xmlns:xlink="http://www.w3.org/1999/xlink" x="0px" y="0px"
	 viewBox="0 0 214.046 214.046" style="enable-background:new 0 0 214.046 214.046;" xml:space="preserve">
<g>
	<path d="M107.025,134.674c15.247,0,27.651-12.405,27.651-27.652c0-15.246-12.404-27.649-27.651-27.649
		c-15.246,0-27.65,12.403-27.65,27.649C79.375,122.27,91.779,134.674,107.025,134.674z M107.025,94.373
		c6.976,0,12.651,5.674,12.651,12.649c0,6.977-5.676,12.652-12.651,12.652s-12.65-5.676-12.65-12.652
		C94.375,100.047,100.05,94.373,107.025,94.373z"/>
	<path d="M183.312,182c18.996-19.325,30.734-45.805,30.734-74.978c0-59.011-48.009-107.02-107.021-107.02
		c-29.182,0-55.668,11.744-74.994,30.748c-0.235,0.185-0.466,0.38-0.683,0.598c-0.217,0.217-0.413,0.447-0.598,0.682
		C11.745,51.355,0,77.841,0,107.022c0,59.012,48.012,107.022,107.025,107.022c29.175,0,55.655-11.739,74.979-30.736
		c0.24-0.188,0.476-0.388,0.697-0.609C182.924,182.477,183.123,182.241,183.312,182z M151.603,140.993
		c5.765-7.555,9.65-16.61,10.974-26.471h36.163c-1.601,19.746-9.463,37.747-21.592,52.016L151.603,140.993z M15.308,99.522
		c1.6-19.746,9.463-37.747,21.593-52.016L62.435,73.04c-5.773,7.557-9.664,16.617-10.988,26.482H15.308z M107.025,65.926
		c22.645,0,41.066,18.436,41.066,41.096c0,22.661-18.422,41.097-41.066,41.097c-22.66,0-41.096-18.436-41.096-41.097
		C65.93,84.362,84.365,65.926,107.025,65.926z M198.739,99.522h-36.163c-3.677-27.396-27.179-48.596-55.551-48.596
		c-12.768,0-24.546,4.296-33.984,11.507L47.508,36.899c16.058-13.648,36.841-21.897,59.517-21.897
		C155.24,15.002,194.909,52.277,198.739,99.522z M15.308,114.522h36.139c3.678,27.397,27.191,48.597,55.579,48.597
		c12.765,0,24.54-4.299,33.976-11.514l25.54,25.54c-16.058,13.649-36.84,21.898-59.516,21.898
		C58.808,199.043,19.137,161.768,15.308,114.522z"/>
</g>
</svg>
