<svg version="1.1" xmlns="http://www.w3.org/2000/svg" xmlns:xlink="http://www.w3.org/1999/xlink" x="0px" y="0px"
	 viewBox="0 0 272.873 272.873" style="enable-background:new 0 0 272.873 272.873;" xml:space="preserve">
<path d="M245.852,112.08H78.674l154.453-63.977c3.827-1.585,5.645-5.973,4.059-9.799L223.238,4.632
	c-1.585-3.826-5.972-5.644-9.799-4.059L24.151,78.977c-1.838,0.761-3.298,2.221-4.059,4.059c-0.761,1.838-0.761,3.902,0,5.74
	l13.377,32.296v34.955v109.346c0,4.142,3.358,7.5,7.5,7.5h204.883c4.143,0,7.5-3.358,7.5-7.5V156.027V119.58
	C253.352,115.438,249.995,112.08,245.852,112.08z M238.352,148.527h-23.555l17.159-21.447h6.396V148.527z M179.637,148.527
	l17.158-21.447h15.952l-17.159,21.447H179.637z M144.476,148.527l17.158-21.447h15.951l-17.158,21.447H144.476z M109.315,148.527
	l17.159-21.447h15.951l-17.158,21.447H109.315z M74.154,148.527l17.159-21.447h15.951l-17.159,21.447H74.154z M48.469,148.527
	V127.08h23.634l-17.159,21.447H48.469z M91.141,67.465l-7.646,26.382l-14.737,6.104l7.645-26.381L91.141,67.465z M123.625,54.01
	l-7.646,26.381l-14.737,6.104l7.646-26.381L123.625,54.01z M156.11,40.555l-7.645,26.38l-14.738,6.105l7.645-26.381L156.11,40.555z
	 M188.593,27.101l-7.644,26.379l-14.737,6.104l7.645-26.38L188.593,27.101z M220.458,37.115l-21.761,9.014l7.644-26.379l5.91-2.448
	L220.458,37.115z M58.656,80.921l-7.646,26.382l-5.982,2.478L36.82,89.965L58.656,80.921z M48.469,257.873v-94.346h10.069
	c0.002,0,0.004,0.001,0.006,0.001c0.003,0,0.006-0.001,0.009-0.001H93.7c0.002,0,0.004,0.001,0.006,0.001
	c0.003,0,0.006-0.001,0.009-0.001h35.146c0.002,0,0.004,0.001,0.006,0.001c0.003,0,0.006-0.001,0.009-0.001h35.146
	c0.002,0,0.004,0.001,0.006,0.001c0.003,0,0.006-0.001,0.009-0.001h35.146c0.002,0,0.004,0.001,0.006,0.001
	c0.003,0,0.006-0.001,0.009-0.001h39.156v94.346H48.469z"/>
</svg>
