<svg viewBox="-41 0 512 512" xmlns="http://www.w3.org/2000/svg"><path d="m422.96875 399.078125-118.101562-204.027344 19.179687-83.71875c3.546875-15.429687-1.894531-31.191406-14.199219-41.132812-2.65625-2.148438-5.515625-3.902344-8.503906-5.300781v-49.898438c0-8.285156-6.714844-15-14.996094-15-8.285156 0-15 6.714844-15 15v48.136719c-1.582031.523437-3.152344 1.128906-4.695312 1.851562-9.417969 4.433594-17.082032 9.195313-23.84375 13.394531-12.117188 7.523438-18.839844 11.453126-27.460938 11.453126-8.617187 0-15.339844-3.929688-27.457031-11.457032-6.761719-4.199218-14.421875-8.957031-23.839844-13.390625-1.542969-.726562-3.113281-1.332031-4.699219-1.855469v-48.132812c0-8.285156-6.714843-15-14.996093-15-8.285157 0-15 6.714844-15 15v49.894531c-2.980469 1.398438-5.839844 3.148438-8.492188 5.289063-12.304687 9.941406-17.753906 25.695312-14.214843 41.121094 0 0 16.59375 72.402343 18.921874 82.554687l-118.691406 200.433594c-.0625.113281-.128906.222656-.191406.335937-3.847656 6.898438-6.058594 14.410156-6.574219 22.324219-1.894531 29.117187 20.25 54.347656 49.367188 56.246094 7.582031.492187 15.140625-.648438 22.179687-3.3125 6.128906 11.949219 16.589844 21.148437 29.457032 25.703125 13.191406 4.667968 27.488281 3.941406 39.984374-1.894532 8.761719 10.054688 21.078126 16.480469 34.511719 17.863282 13.402344 1.378906 26.738281-2.394532 37.347657-10.421875 9.203124 7.042969 20.492187 10.863281 32.121093 10.863281 1.722657 0 3.457031-.085938 5.191407-.253906 13.351562-1.308594 25.609374-7.585938 34.410156-17.460938 6.851562 3.839844 14.507812 6.113282 22.425781 6.628906 20.042969 1.304688 39.007813-8.945312 49.042969-25.953124 5.734375 2.570312 11.933594 4.113281 18.226562 4.523437 1.167969.078125 2.324219.113281 3.476563.113281 27.621093 0 50.949219-21.527344 52.769531-49.480468.714844-10.964844-1.933594-21.691407-7.65625-31.039063zm-250.90625-295.21875c13.21875 8.214844 25.707031 15.972656 43.285156 15.972656s30.066406-7.757812 43.289063-15.96875c6.363281-3.953125 12.945312-8.039062 20.789062-11.730469 4.007813-1.886718 8.117188-1.390624 11.566407 1.394532 3.460937 2.800781 4.820312 6.738281 3.820312 11.085937l-18.417969 80.375h-122.082031c-2.164062-9.429687-18.425781-80.386719-18.425781-80.386719-.996094-4.347656.359375-8.28125 3.824219-11.082031 3.449218-2.785156 7.554687-3.28125 11.5625-1.394531 7.84375 3.695312 14.425781 7.78125 20.789062 11.734375zm228.628906 324.308594c-.824218 12.613281-11.765625 22.191406-24.363281 21.382812-3.710937-.242187-7.191406-1.332031-10.34375-3.234375-5.933594-3.589844-13.109375-4.445312-19.699219-2.351562-6.582031 2.09375-11.949218 6.941406-14.71875 13.300781-3.847656 8.828125-12.894531 14.335937-22.511718 13.714844-4.257813-.277344-8.332032-1.722657-11.78125-4.179688-10.769532-7.671875-25.777344-5.160156-33.460938 5.605469-3.832031 5.378906-9.835938 8.832031-16.46875 9.484375-6.695312.65625-13.054688-1.5-17.90625-6.066406-4.605469-4.339844-10.527344-6.511719-16.457031-6.511719-5.875 0-11.757813 2.136719-16.347657 6.414062-4.890624 4.550782-11.265624 6.675782-17.953124 5.988282-6.601563-.675782-12.570313-4.152344-16.378907-9.527344-7.1875-10.144531-21.179687-13.109375-31.863281-6.75-5.828125 3.46875-12.867188 4.152344-19.3125 1.871094-6.472656-2.289063-11.539062-7.273438-13.894531-13.667969-2.398438-6.496094-7.464844-11.640625-13.90625-14.113281-6.441407-2.476563-13.652344-2.046875-19.777344 1.175781-3.710937 1.949219-7.902344 2.832031-12.121094 2.5625-12.609375-.824219-22.203125-11.75-21.378906-24.363281.21875-3.375 1.144531-6.578125 2.757813-9.511719l115.117187-194.402344 133.828125.011719 115.355469 199.277344c.074219.125.148437.25.222656.375 2.511719 4.058594 3.671875 8.730468 3.363281 13.515625zm0 0"/></svg>