<svg version="1.1" xmlns="http://www.w3.org/2000/svg" xmlns:xlink="http://www.w3.org/1999/xlink" x="0px" y="0px"
	 viewBox="0 0 270.189 270.189" style="enable-background:new 0 0 270.189 270.189;" xml:space="preserve">
<path d="M227.454,0h-43.845H86.58H42.735c-4.142,0-7.5,3.358-7.5,7.5v255.189c0,4.142,3.358,7.5,7.5,7.5H86.58h97.029h43.845
	c4.142,0,7.5-3.358,7.5-7.5V7.5C234.954,3.358,231.596,0,227.454,0z M191.109,185.127h28.845v27.531h-28.845V185.127z
	 M79.08,212.658H50.235v-27.531H79.08V212.658z M79.08,85.064H50.235V57.533H79.08V85.064z M79.08,127.596H50.235v-27.531H79.08
	V127.596z M50.235,170.127v-27.531H79.08v27.531H50.235z M94.08,100.064h82.029v70.063H94.08V100.064z M191.109,57.533h28.845
	v27.531h-28.845V57.533z M219.954,100.064v27.531h-28.845v-27.531H219.954z M191.109,142.596h28.845v27.531h-28.845V142.596z
	 M219.954,42.533h-28.845V15h28.845V42.533z M176.109,15v70.064H94.08V15H176.109z M79.08,15v27.533H50.235V15H79.08z
	 M50.235,227.658H79.08v27.531H50.235V227.658z M94.08,255.189v-70.063h82.029v70.063H94.08z M191.109,255.189v-27.531h28.845
	v27.531H191.109z"/>
</svg>
