<svg version="1.1" xmlns="http://www.w3.org/2000/svg" xmlns:xlink="http://www.w3.org/1999/xlink" x="0px" y="0px"
	 viewBox="0 0 270.189 270.189" style="enable-background:new 0 0 270.189 270.189;" xml:space="preserve">
<g>
	<path d="M193.943,57.927h-7.212V7.5c0-4.142-3.358-7.5-7.5-7.5H90.958c-4.142,0-7.5,3.358-7.5,7.5v50.427h-7.212
		c-4.142,0-7.5,3.358-7.5,7.5v138.415c0,36.584,29.764,66.348,66.349,66.348s66.349-29.764,66.349-66.348V65.427
		C201.443,61.285,198.085,57.927,193.943,57.927z M98.458,15h73.273v42.927H98.458V15z M186.443,203.842
		c0,28.313-23.035,51.348-51.349,51.348s-51.349-23.035-51.349-51.348V72.927h7.212h88.273h7.212V203.842z"/>
	<rect x="107.791" y="28.964" width="22.067" height="15"/>
	<rect x="140.332" y="28.964" width="22.067" height="15"/>
</g>
</svg>
