<svg version="1.1" xmlns="http://www.w3.org/2000/svg" xmlns:xlink="http://www.w3.org/1999/xlink" x="0px" y="0px"
	 viewBox="0 0 303.419 303.419" style="enable-background:new 0 0 303.419 303.419;" xml:space="preserve">
	<path d="M295.919,81.858H186.298V61.571c0-4.142-3.357-7.5-7.5-7.5H64.476c-4.143,0-7.5,3.358-7.5,7.5v51.127H28.5
		c-4.143,0-7.5,3.358-7.5,7.5v38.445c0,4.142,3.357,7.5,7.5,7.5h28.476v75.705c0,4.142,3.357,7.5,7.5,7.5h114.322
		c4.143,0,7.5-3.358,7.5-7.5v-44.863h109.621c4.142,0,7.5-3.358,7.5-7.5V89.358C303.419,85.216,300.061,81.858,295.919,81.858z
		 M36,151.143v-23.445h20.976v23.445H36z M171.298,234.348H71.976v-75.705v-38.445V69.071h99.322v20.287v100.127V234.348z
		 M288.419,181.985H186.298V96.858h102.121V181.985z"/>
	<path d="M121.637,81.858c-23.047,0-41.797,18.75-41.797,41.797s18.75,41.797,41.797,41.797c23.047,0,41.797-18.75,41.797-41.797
		S144.684,81.858,121.637,81.858z M121.637,150.452c-14.775,0-26.797-12.021-26.797-26.797s12.021-26.797,26.797-26.797
		c14.775,0,26.797,12.021,26.797,26.797S136.412,150.452,121.637,150.452z"/>
	<path d="M155.934,186.907H87.34c-4.143,0-7.5,3.358-7.5,7.5s3.357,7.5,7.5,7.5h68.594c4.143,0,7.5-3.358,7.5-7.5
		S160.076,186.907,155.934,186.907z"/>
	<path d="M7.5,112.698c-4.143,0-7.5,3.358-7.5,7.5v38.445c0,4.142,3.357,7.5,7.5,7.5s7.5-3.358,7.5-7.5v-38.445
		C15,116.056,11.643,112.698,7.5,112.698z"/>
</svg>
