<svg version="1.1" xmlns="http://www.w3.org/2000/svg" xmlns:xlink="http://www.w3.org/1999/xlink" x="0px" y="0px"
	 viewBox="0 0 267.322 267.322" style="enable-background:new 0 0 267.322 267.322;" xml:space="preserve">
<path d="M245.127,144.135h-3.553v-31.039c0-0.493-0.049-0.984-0.145-1.467c-10.195-51.128-55.538-88.238-107.816-88.238
	c-51.952,0-97.253,37.098-107.715,88.211c-0.102,0.495-0.152,0.999-0.152,1.504v31.029h-3.553C9.956,144.135,0,154.091,0,166.328
	v55.41c0,12.237,9.956,22.193,22.193,22.193h22.106c12.238,0,22.195-9.956,22.195-22.193v-55.41
	c0-12.237-9.957-22.193-22.195-22.193h-3.553v-30.255C50.063,70.091,89,38.391,133.613,38.391c44.906,0,83.884,31.69,92.961,75.459
	v30.285h-3.553c-12.238,0-22.195,9.956-22.195,22.193v55.41c0,12.237,9.957,22.193,22.195,22.193h22.105
	c12.238,0,22.195-9.956,22.195-22.193v-55.41C267.322,154.091,257.365,144.135,245.127,144.135z M15,221.738v-55.41
	c0-3.966,3.227-7.193,7.193-7.193h3.553v69.797h-3.553C18.227,228.932,15,225.705,15,221.738z M44.299,159.135
	c3.968,0,7.195,3.227,7.195,7.193v55.41c0,3.966-3.228,7.193-7.195,7.193h-3.553v-69.797H44.299z M215.826,221.738v-55.41
	c0-3.966,3.228-7.193,7.195-7.193h3.553v69.797h-3.553C219.054,228.932,215.826,225.705,215.826,221.738z M252.322,221.738
	c0,3.966-3.227,7.193-7.195,7.193h-3.553v-69.797h3.553c3.968,0,7.195,3.227,7.195,7.193V221.738z"/>
</svg>
