<svg version="1.1" xmlns="http://www.w3.org/2000/svg" xmlns:xlink="http://www.w3.org/1999/xlink" x="0px" y="0px"
	 viewBox="0 0 270.189 270.189" style="enable-background:new 0 0 270.189 270.189;" xml:space="preserve">
	<path d="M202.22,0H67.971c-9.779,0-17.735,7.962-17.735,17.75v234.705c0,9.779,7.956,17.734,17.735,17.734H202.22
		c9.779,0,17.734-7.956,17.734-17.734V17.75C219.954,7.962,211.998,0,202.22,0z M204.954,252.455c0,1.508-1.227,2.734-2.734,2.734
		H67.971c-1.483,0-2.735-1.252-2.735-2.734V17.75c0-1.517,1.227-2.75,2.735-2.75H202.22c1.508,0,2.734,1.233,2.734,2.75V252.455z"/>
	<path d="M135.095,131.806c-30.442,0-55.209,24.768-55.209,55.212c0,30.441,24.767,55.206,55.209,55.206
		s55.209-24.765,55.209-55.206C190.304,156.574,165.537,131.806,135.095,131.806z M135.095,227.224
		c-22.171,0-40.209-18.036-40.209-40.206c0-22.173,18.038-40.212,40.209-40.212s40.209,18.039,40.209,40.212
		C175.304,209.188,157.266,227.224,135.095,227.224z"/>
	<path d="M135.095,161.623c-14,0-25.391,11.392-25.391,25.394c0,14,11.39,25.39,25.391,25.39c14.001,0,25.392-11.39,25.392-25.39
		C160.486,173.015,149.096,161.623,135.095,161.623z M135.095,197.406c-5.729,0-10.391-4.661-10.391-10.39
		c0-5.731,4.661-10.394,10.391-10.394c5.73,0,10.392,4.663,10.392,10.394C145.486,192.746,140.825,197.406,135.095,197.406z"/>
	<path d="M182.804,27.967H87.386c-4.142,0-7.5,3.358-7.5,7.5v75.619c0,4.142,3.358,7.5,7.5,7.5h95.418c4.142,0,7.5-3.358,7.5-7.5
		V35.467C190.304,31.325,186.946,27.967,182.804,27.967z M175.304,103.586H94.886V42.967h80.418V103.586z"/>
</svg>
