<svg version="1.1" xmlns="http://www.w3.org/2000/svg" xmlns:xlink="http://www.w3.org/1999/xlink" x="0px" y="0px"
	 viewBox="0 0 259.816 259.816" style="enable-background:new 0 0 259.816 259.816;" xml:space="preserve">
<path d="M252.316,73.446H137.408V56.465c0-17.635-14.347-31.982-31.981-31.982H7.5c-4.142,0-7.5,3.358-7.5,7.5s3.358,7.5,7.5,7.5
	h97.927c9.364,0,16.981,7.618,16.981,16.982v16.981H7.5c-4.142,0-7.5,3.358-7.5,7.5v146.888c0,4.142,3.358,7.5,7.5,7.5h244.816
	c4.142,0,7.5-3.358,7.5-7.5V80.946C259.816,76.804,256.458,73.446,252.316,73.446z M15,137.409h33.963v33.962H15V137.409z
	 M63.963,137.409h33.964v33.962H63.963V137.409z M146.89,88.446v33.963h-33.963V88.446H146.89z M161.89,88.446h33.963v33.963H161.89
	V88.446z M112.927,171.371v-33.962h33.963v33.962H112.927z M97.927,122.409H63.963V88.446h33.964V122.409z M195.852,186.371v33.963
	H63.963v-33.963H195.852z M161.89,171.371v-33.962h33.963v33.962H161.89z M210.852,137.409h33.964v33.962h-33.964V137.409z
	 M244.816,122.409h-33.964V88.446h33.964V122.409z M48.963,88.446v33.963H15V88.446H48.963z M15,186.371h33.963v33.963H15V186.371z
	 M210.852,220.334v-33.963h33.964v33.963H210.852z"/>
</svg>
