<svg version="1.1" xmlns="http://www.w3.org/2000/svg" xmlns:xlink="http://www.w3.org/1999/xlink" x="0px" y="0px"
	 viewBox="0 0 233.131 233.131" style="enable-background:new 0 0 233.131 233.131;" xml:space="preserve">
<g>
	<path d="M187.188,0H45.943c-9.779,0-17.735,7.963-17.735,17.75v197.646c0,9.779,7.956,17.734,17.735,17.734h141.245
		c9.779,0,17.734-7.956,17.734-17.734V17.75C204.923,7.963,196.967,0,187.188,0z M189.923,215.396c0,1.508-1.226,2.734-2.734,2.734
		H45.943c-1.483,0-2.735-1.252-2.735-2.734V17.75c0-1.516,1.227-2.75,2.735-2.75h141.245c1.508,0,2.734,1.234,2.734,2.75V215.396z"
		/>
	<path d="M171.136,33.37H61.995c-4.142,0-7.5,3.358-7.5,7.5v143.248c0,4.142,3.358,7.5,7.5,7.5h109.141c4.142,0,7.5-3.358,7.5-7.5
		V40.87C178.636,36.728,175.278,33.37,171.136,33.37z M163.636,176.618H69.495V48.37h94.141V176.618z"/>
	<rect x="82.824" y="70.083" width="67.482" height="15"/>
	<rect x="82.824" y="139.905" width="67.482" height="15"/>
	<rect x="82.824" y="104.995" width="67.482" height="15"/>
</g>
</svg>
