<svg version="1.1" xmlns="http://www.w3.org/2000/svg" xmlns:xlink="http://www.w3.org/1999/xlink" x="0px" y="0px"
	 viewBox="0 0 306.976 306.976" style="enable-background:new 0 0 306.976 306.976;" xml:space="preserve">
<g>
	<path d="M233.779,78.82H73.195c-4.142,0-7.5,3.358-7.5,7.5v101.621c0,4.142,3.358,7.5,7.5,7.5h160.584c4.142,0,7.5-3.358,7.5-7.5
		V86.32C241.279,82.178,237.921,78.82,233.779,78.82z M226.279,180.441H80.695V93.82h145.584V180.441z"/>
	<path d="M299.476,211.406h-23.578V66.542c0-10.298-8.38-18.676-18.682-18.676H49.769c-10.307,0-18.691,8.378-18.691,18.676v144.863
		H7.5c-4.142,0-7.5,3.358-7.5,7.5v32.703c0,4.142,3.358,7.5,7.5,7.5h291.976c4.142,0,7.5-3.358,7.5-7.5v-32.703
		C306.976,214.764,303.618,211.406,299.476,211.406z M46.077,66.542c0-1.993,1.69-3.676,3.691-3.676h207.447
		c1.996,0,3.682,1.683,3.682,3.676v144.863H46.077V66.542z M291.976,244.109H15v-17.703h23.577h229.82h23.578V244.109z"/>
</g>
</svg>
