<svg version="1.1" xmlns="http://www.w3.org/2000/svg" xmlns:xlink="http://www.w3.org/1999/xlink" x="0px" y="0px"
	 viewBox="0 0 239.077 239.077" style="enable-background:new 0 0 239.077 239.077;" xml:space="preserve">
<g>
	<path d="M203.708,12.539h-38.524c-3.636,0-6.666,2.588-7.352,6.022l-125.4,37.186c-3.184,0.944-5.368,3.87-5.368,7.19v72.244
		c-0.001,0.375,0.034,0.753,0.09,1.132c0.01,0.07,0.02,0.14,0.032,0.209c0.056,0.309,0.124,0.62,0.221,0.928l26.248,83.827
		c1.004,3.207,3.963,5.261,7.155,5.261c0.741,0,1.495-0.111,2.24-0.344l38.224-11.952c1.899-0.594,3.484-1.917,4.406-3.68
		c0.923-1.762,1.107-3.819,0.513-5.718l-13.994-44.717l65.632,19.467c0.686,3.434,3.717,6.022,7.352,6.022h38.524
		c4.142,0,7.5-3.358,7.5-7.5V20.039C211.208,15.897,207.85,12.539,203.708,12.539z M42.063,68.536l115.62-34.286v129.655
		l-74.676-22.15c-0.018-0.005-0.035-0.01-0.053-0.016L42.063,129.61V68.536z M89.637,202.165l-23.909,7.476l-19.801-63.238
		l28.947,8.586L89.637,202.165z M196.208,170.616h-23.524V27.539h23.524V170.616z"/>
	<path d="M7.5,55.438c-4.142,0-7.5,3.358-7.5,7.5v72.271c0,4.142,3.358,7.5,7.5,7.5s7.5-3.358,7.5-7.5V62.938
		C15,58.795,11.642,55.438,7.5,55.438z"/>
	<path d="M231.577,58.687c-4.142,0-7.5,3.358-7.5,7.5v65.793c0,4.142,3.358,7.5,7.5,7.5c4.142,0,7.5-3.358,7.5-7.5V66.187
		C239.077,62.044,235.719,58.687,231.577,58.687z"/>
</g>
</svg>
