<svg version="1.1" xmlns="http://www.w3.org/2000/svg" xmlns:xlink="http://www.w3.org/1999/xlink" x="0px" y="0px"
	 viewBox="0 0 270.189 270.189" style="enable-background:new 0 0 270.189 270.189;" xml:space="preserve">
<g>
	<path d="M224.408,139.658c0-4.143-3.357-7.5-7.5-7.5s-7.5,3.357-7.5,7.5c0,40.976-33.337,74.313-74.313,74.313
		c-40.977,0-74.313-33.337-74.313-74.313c0-4.143-3.357-7.5-7.5-7.5s-7.5,3.357-7.5,7.5c0,46.721,36.063,85.173,81.813,88.995
		v26.536H94.188c-4.143,0-7.5,3.357-7.5,7.5c0,4.143,3.357,7.5,7.5,7.5h81.813c4.143,0,7.5-3.357,7.5-7.5c0-4.143-3.357-7.5-7.5-7.5
		h-33.406v-26.536C188.345,224.831,224.408,186.379,224.408,139.658z"/>
	<path d="M135.095,188.064c26.691,0,48.406-21.715,48.406-48.406V48.406C183.501,21.715,161.787,0,135.095,0
		S86.688,21.715,86.688,48.406v91.252C86.688,166.35,108.404,188.064,135.095,188.064z M135.095,15
		c18.42,0,33.406,14.986,33.406,33.406v2.5h-16.406c-4.143,0-7.5,3.357-7.5,7.5s3.357,7.5,7.5,7.5h16.406v20.625h-16.406
		c-4.143,0-7.5,3.357-7.5,7.5c0,4.143,3.357,7.5,7.5,7.5h16.406v20.627h-16.406c-4.143,0-7.5,3.357-7.5,7.5
		c0,4.143,3.357,7.5,7.5,7.5h16.406v2.5c0,18.42-14.986,33.406-33.406,33.406c-18.421,0-33.407-14.986-33.407-33.406v-2.5h16.407
		c4.143,0,7.5-3.357,7.5-7.5c0-4.143-3.357-7.5-7.5-7.5h-16.407v-20.627h16.407c4.143,0,7.5-3.357,7.5-7.5
		c0-4.143-3.357-7.5-7.5-7.5h-16.407V65.906h16.407c4.143,0,7.5-3.357,7.5-7.5s-3.357-7.5-7.5-7.5h-16.407v-2.5
		C101.688,29.986,116.674,15,135.095,15z"/>
</g>
</svg>
