<svg version="1.1" xmlns="http://www.w3.org/2000/svg" xmlns:xlink="http://www.w3.org/1999/xlink" x="0px" y="0px"
	 viewBox="0 0 230.437 230.437" style="enable-background:new 0 0 230.437 230.437;" xml:space="preserve">
<path d="M169.358,53.86h-46.639l-0.001-19.43C122.718,15.445,107.273,0,88.289,0H53.666c-4.143,0-7.5,3.358-7.5,7.5
	s3.357,7.5,7.5,7.5h34.623c10.714,0,19.43,8.717,19.43,19.431l0.001,19.429H61.076c-8.222,0-14.91,6.691-14.91,14.916v92.605
	c0,38.077,30.977,69.055,69.055,69.055c38.075,0,69.051-30.978,69.051-69.055V68.776C184.271,60.552,177.581,53.86,169.358,53.86z
	 M169.271,100.163H122.72V68.86h46.551V100.163z M107.72,68.86v31.303H61.166V68.86H107.72z M115.22,215.437
	c-29.806,0-54.055-24.249-54.055-54.055v-46.219h108.105v46.219C169.271,191.188,145.024,215.437,115.22,215.437z"/>
</svg>
