<svg version="1.1" xmlns="http://www.w3.org/2000/svg" xmlns:xlink="http://www.w3.org/1999/xlink" x="0px" y="0px"
	 viewBox="0 0 270.189 270.189" style="enable-background:new 0 0 270.189 270.189;" xml:space="preserve">
<g>
	<path d="M210.751,0H59.438c-4.142,0-7.5,3.358-7.5,7.5v255.189c0,4.142,3.358,7.5,7.5,7.5h151.313c4.143,0,7.5-3.358,7.5-7.5V7.5
		C218.251,3.358,214.893,0,210.751,0z M203.251,255.189H66.938V15h136.313V255.189z"/>
	<path d="M84.168,78.38h101.855c4.143,0,7.5-3.358,7.5-7.5V34.125c0-4.142-3.357-7.5-7.5-7.5H84.168c-4.142,0-7.5,3.358-7.5,7.5
		V70.88C76.668,75.022,80.026,78.38,84.168,78.38z M91.668,41.625h86.855V63.38H91.668V41.625z"/>
	<path d="M84.168,111.189h101.855c4.143,0,7.5-3.358,7.5-7.5c0-4.142-3.357-7.5-7.5-7.5H84.168c-4.142,0-7.5,3.358-7.5,7.5
		C76.668,107.831,80.026,111.189,84.168,111.189z"/>
	<path d="M84.168,143.189h101.855c4.143,0,7.5-3.358,7.5-7.5c0-4.142-3.357-7.5-7.5-7.5H84.168c-4.142,0-7.5,3.358-7.5,7.5
		C76.668,139.831,80.026,143.189,84.168,143.189z"/>
	<path d="M135.095,163.821c-18.176,0-32.963,14.788-32.963,32.964c0,18.176,14.787,32.963,32.963,32.963
		c18.177,0,32.964-14.787,32.964-32.963C168.059,178.609,153.271,163.821,135.095,163.821z M135.095,214.748
		c-9.905,0-17.963-8.058-17.963-17.963c0-9.905,8.058-17.964,17.963-17.964c9.905,0,17.964,8.059,17.964,17.964
		C153.059,206.69,145,214.748,135.095,214.748z"/>
</g>
</svg>
