<svg version="1.1" xmlns="http://www.w3.org/2000/svg" xmlns:xlink="http://www.w3.org/1999/xlink" x="0px" y="0px"
	 viewBox="0 0 214.041 214.041" style="enable-background:new 0 0 214.041 214.041;" xml:space="preserve">
<g>
	<path d="M43.103,157.215H170.93c4.142,0,7.5-3.358,7.5-7.5V32.971c0-4.142-3.358-7.5-7.5-7.5H43.103c-4.142,0-7.5,3.358-7.5,7.5
		v116.744C35.603,153.857,38.96,157.215,43.103,157.215z M50.603,40.471H163.43v101.744H50.603V40.471z"/>
	<path d="M198.501,0H15.54c-4.142,0-7.5,3.358-7.5,7.5v199.041c0,4.142,3.358,7.5,7.5,7.5h182.961c4.142,0,7.5-3.358,7.5-7.5V7.5
		C206.001,3.358,202.643,0,198.501,0z M191.001,199.041H23.04V15h167.961V199.041z"/>
</g>
</svg>
