<svg version="1.1" xmlns="http://www.w3.org/2000/svg" xmlns:xlink="http://www.w3.org/1999/xlink" x="0px" y="0px"
	 viewBox="0 0 217.996 217.996" style="enable-background:new 0 0 217.996 217.996;" xml:space="preserve">
<g>
	<path d="M202.343,47.267H15.636C7.014,47.267,0,54.285,0,62.911v118.888c0,8.622,7.014,15.636,15.636,15.636h186.707
		c8.631,0,15.653-7.014,15.653-15.636V62.911C217.996,54.285,210.974,47.267,202.343,47.267z M202.996,181.799
		c0,0.356-0.287,0.636-0.653,0.636H15.636c-0.351,0-0.636-0.285-0.636-0.636V62.911c0-0.343,0.297-0.645,0.636-0.645h186.707
		c0.36,0,0.653,0.289,0.653,0.645V181.799z"/>
	<path d="M142.907,81.061c-22.774,0-41.303,18.524-41.303,41.294c0,22.765,18.528,41.286,41.303,41.286
		c22.765,0,41.286-18.521,41.286-41.286C184.193,99.585,165.672,81.061,142.907,81.061z M142.907,148.641
		c-14.503,0-26.303-11.792-26.303-26.286c0-14.498,11.799-26.294,26.303-26.294c14.494,0,26.286,11.795,26.286,26.294
		C169.193,136.849,157.401,148.641,142.907,148.641z"/>
	<path d="M32.867,35.562h50.754c4.142,0,7.5-3.358,7.5-7.5s-3.358-7.5-7.5-7.5H32.867c-4.142,0-7.5,3.358-7.5,7.5
		S28.725,35.562,32.867,35.562z"/>
	<path d="M77.27,75.248H39.218c-4.142,0-7.5,3.358-7.5,7.5v38.061c0,4.142,3.358,7.5,7.5,7.5H77.27c4.142,0,7.5-3.358,7.5-7.5
		V82.748C84.77,78.606,81.412,75.248,77.27,75.248z M69.77,113.309H46.718V90.248H69.77V113.309z"/>
</g>
</svg>
