<svg version="1.1" xmlns="http://www.w3.org/2000/svg" xmlns:xlink="http://www.w3.org/1999/xlink" x="0px" y="0px"
	 viewBox="0 0 270.189 270.189" style="enable-background:new 0 0 270.189 270.189;" xml:space="preserve">
<g>
	<path d="M262.689,57.705H7.5c-4.142,0-7.5,3.357-7.5,7.5v115.188c0,4.143,3.358,7.5,7.5,7.5h255.189c4.143,0,7.5-3.357,7.5-7.5
		V65.205C270.189,61.063,266.832,57.705,262.689,57.705z M255.189,172.893H15V72.705h240.189V172.893z"/>
	<rect x="32.296" y="88.344" width="39.808" height="15"/>
	<rect x="81.868" y="88.344" width="39.808" height="15"/>
	<rect x="32.296" y="143.484" width="39.808" height="15"/>
	<rect x="81.868" y="143.484" width="39.808" height="15"/>
	<rect x="32.296" y="115.203" width="39.808" height="15"/>
	<rect x="81.868" y="115.203" width="39.808" height="15"/>
	<path d="M78.104,197.484H38.296c-4.142,0-7.5,3.357-7.5,7.5c0,4.143,3.358,7.5,7.5,7.5h39.808c4.142,0,7.5-3.357,7.5-7.5
		C85.604,200.842,82.246,197.484,78.104,197.484z"/>
	<path d="M231.894,197.484h-39.808c-4.143,0-7.5,3.357-7.5,7.5c0,4.143,3.357,7.5,7.5,7.5h39.808c4.143,0,7.5-3.357,7.5-7.5
		C239.394,200.842,236.036,197.484,231.894,197.484z"/>
	<path d="M192.184,162.494c21.887,0,39.693-17.808,39.693-39.695s-17.807-39.695-39.693-39.695
		c-21.888,0-39.695,17.808-39.695,39.695S170.296,162.494,192.184,162.494z M192.184,98.104c13.616,0,24.693,11.078,24.693,24.695
		s-11.077,24.695-24.693,24.695c-13.617,0-24.695-11.078-24.695-24.695S178.566,98.104,192.184,98.104z"/>
</g>
</svg>
