<svg version="1.1" xmlns="http://www.w3.org/2000/svg" xmlns:xlink="http://www.w3.org/1999/xlink" x="0px" y="0px"
	 viewBox="0 0 230.359 230.359" style="enable-background:new 0 0 230.359 230.359;" xml:space="preserve">
<path d="M210.322,5.604H20.024C8.982,5.604,0,14.586,0,25.628v142.52c0,11.048,8.982,20.037,20.024,20.037h87.65v21.571H61.34
	c-4.143,0-7.5,3.358-7.5,7.5s3.357,7.5,7.5,7.5h107.68c4.143,0,7.5-3.358,7.5-7.5s-3.357-7.5-7.5-7.5h-46.346v-21.571h87.648
	c11.049,0,20.037-8.989,20.037-20.037V25.628C230.359,14.586,221.371,5.604,210.322,5.604z M15,51.128h200.359v91.521H15V51.128z
	 M20.024,20.604h190.299c2.777,0,5.037,2.253,5.037,5.024v10.501H15V25.628C15,22.857,17.254,20.604,20.024,20.604z
	 M210.322,173.184H20.024c-2.77,0-5.024-2.26-5.024-5.037V157.65h200.359v10.497C215.359,170.924,213.1,173.184,210.322,173.184z"/>
</svg>
