<svg version="1.1" xmlns="http://www.w3.org/2000/svg" xmlns:xlink="http://www.w3.org/1999/xlink" x="0px" y="0px"
	 viewBox="0 0 216.842 216.842" style="enable-background:new 0 0 216.842 216.842;" xml:space="preserve">
<g>
	<path d="M167.524,0H49.317c-8.6,0-15.596,7.001-15.596,15.606v185.642c0,8.599,6.996,15.595,15.596,15.595h118.207
		c8.6,0,15.596-6.996,15.596-15.595V15.606C183.12,7.001,176.124,0,167.524,0z M48.722,52.188H168.12v99.432H48.722V52.188z
		 M49.317,15h118.207c0.334,0,0.596,0.266,0.596,0.606v21.582H48.722V15.606C48.722,15.271,48.989,15,49.317,15z M167.524,201.842
		H49.317c-0.317,0-0.596-0.278-0.596-0.595v-34.628H168.12v34.628C168.12,201.575,167.853,201.842,167.524,201.842z"/>
	<path d="M120.133,176.721H96.717c-4.142,0-7.5,3.358-7.5,7.5c0,4.142,3.358,7.5,7.5,7.5h23.416c4.143,0,7.5-3.358,7.5-7.5
		C127.633,180.079,124.275,176.721,120.133,176.721z"/>
</g>
</svg>
