<svg version="1.1" xmlns="http://www.w3.org/2000/svg" xmlns:xlink="http://www.w3.org/1999/xlink" x="0px" y="0px"
	 viewBox="0 0 271.804 271.804" style="enable-background:new 0 0 271.804 271.804;" xml:space="preserve">
<g>
	<path d="M227.182,0H44.622c-4.143,0-7.5,3.358-7.5,7.5v232.07c0,4.142,3.357,7.5,7.5,7.5h182.561c4.143,0,7.5-3.358,7.5-7.5V7.5
		C234.682,3.358,231.325,0,227.182,0z M219.682,232.07H52.122V15h167.561V232.07z"/>
	<path d="M135.902,96.895c19.467,0,35.305-15.839,35.305-35.309c0-19.469-15.838-35.309-35.305-35.309s-35.305,15.839-35.305,35.309
		C100.597,81.055,116.435,96.895,135.902,96.895z M135.902,41.277c11.196,0,20.305,9.11,20.305,20.309
		c0,11.198-9.108,20.309-20.305,20.309c-11.196,0-20.305-9.11-20.305-20.309C115.597,50.388,124.706,41.277,135.902,41.277z"/>
	<path d="M135.902,220.793c31.736,0,57.556-25.816,57.556-57.549c0-31.736-25.819-57.555-57.556-57.555
		c-31.734,0-57.552,25.819-57.552,57.555C78.35,194.977,104.167,220.793,135.902,220.793z M135.902,120.689
		c23.465,0,42.556,19.09,42.556,42.555c0,23.461-19.091,42.549-42.556,42.549c-23.463,0-42.552-19.087-42.552-42.549
		C93.35,139.779,112.439,120.689,135.902,120.689z"/>
	<path d="M135.903,193.265c16.556,0,30.024-13.468,30.024-30.022c0-16.556-13.469-30.024-30.024-30.024
		c-16.555,0-30.023,13.469-30.023,30.024C105.879,179.796,119.348,193.265,135.903,193.265z M135.903,148.218
		c8.284,0,15.024,6.74,15.024,15.024c0,8.283-6.74,15.022-15.024,15.022c-8.284,0-15.023-6.739-15.023-15.022
		C120.879,154.958,127.619,148.218,135.903,148.218z"/>
	<path d="M197.695,82.99c4.143,0,7.5-3.358,7.5-7.5V47.682c0-4.142-3.357-7.5-7.5-7.5c-4.143,0-7.5,3.358-7.5,7.5V75.49
		C190.195,79.632,193.552,82.99,197.695,82.99z"/>
	<path d="M113.082,256.804h-45.64c-4.142,0-7.5,3.358-7.5,7.5c0,4.142,3.357,7.5,7.5,7.5h45.64c4.143,0,7.5-3.358,7.5-7.5
		C120.582,260.162,117.224,256.804,113.082,256.804z"/>
	<path d="M204.363,256.804h-45.641c-4.143,0-7.5,3.358-7.5,7.5c0,4.142,3.357,7.5,7.5,7.5h45.641c4.143,0,7.5-3.358,7.5-7.5
		C211.863,260.162,208.505,256.804,204.363,256.804z"/>
</g>
</svg>
