<svg version="1.1" xmlns="http://www.w3.org/2000/svg" xmlns:xlink="http://www.w3.org/1999/xlink" x="0px" y="0px"
	 viewBox="0 0 263.083 263.083" style="enable-background:new 0 0 263.083 263.083;" xml:space="preserve">
<g>
	<path d="M255.583,55.251h-54.521V29.648c0-4.142-3.358-7.5-7.5-7.5H69.521c-4.142,0-7.5,3.358-7.5,7.5v25.604H7.5
		c-4.142,0-7.5,3.357-7.5,7.5v170.684c0,4.143,3.358,7.5,7.5,7.5h248.083c4.142,0,7.5-3.357,7.5-7.5V62.751
		C263.083,58.609,259.725,55.251,255.583,55.251z M77.021,37.148h109.041v18.104H77.021V37.148z M248.083,225.935H15V70.252h54.521
		h124.041h54.521V225.935z"/>
	<path d="M76.521,115.959c-28.802,0-52.234,23.432-52.234,52.232c0,28.802,23.432,52.234,52.234,52.234
		c28.802,0,52.233-23.433,52.233-52.234C128.754,139.39,105.323,115.959,76.521,115.959z M76.521,205.425
		c-20.531,0-37.234-16.703-37.234-37.234c0-20.53,16.703-37.232,37.234-37.232s37.233,16.702,37.233,37.232
		C113.754,188.722,97.052,205.425,76.521,205.425z"/>
	<path d="M134.329,168.191c0,28.802,23.432,52.234,52.233,52.234s52.234-23.433,52.234-52.234c0-28.801-23.432-52.232-52.234-52.232
		S134.329,139.39,134.329,168.191z M223.796,168.191c0,20.531-16.703,37.234-37.234,37.234s-37.233-16.703-37.233-37.234
		c0-20.53,16.703-37.232,37.233-37.232S223.796,147.661,223.796,168.191z"/>
	<path d="M76.521,140.56c-15.235,0-27.63,12.395-27.63,27.631c0,15.235,12.394,27.631,27.63,27.631
		c15.235,0,27.63-12.395,27.63-27.631C104.151,152.956,91.756,140.56,76.521,140.56z M76.521,180.822
		c-6.964,0-12.63-5.666-12.63-12.631c0-6.965,5.666-12.631,12.63-12.631c6.964,0,12.63,5.666,12.63,12.631
		C89.151,175.156,83.485,180.822,76.521,180.822z"/>
	<path d="M158.932,168.191c0,15.235,12.395,27.631,27.63,27.631c15.235,0,27.63-12.395,27.63-27.631
		c0-15.235-12.395-27.631-27.63-27.631C171.327,140.56,158.932,152.956,158.932,168.191z M199.192,168.191
		c0,6.965-5.666,12.631-12.63,12.631c-6.964,0-12.63-5.666-12.63-12.631c0-6.965,5.666-12.631,12.63-12.631
		C193.526,155.56,199.192,161.226,199.192,168.191z"/>
	<path d="M58.401,90.138c0,4.143,3.358,7.5,7.5,7.5h131.508c4.142,0,7.5-3.357,7.5-7.5s-3.358-7.5-7.5-7.5H65.901
		C61.759,82.638,58.401,85.996,58.401,90.138z"/>
	<path d="M148.094,119.959c4.142,0,7.5-3.357,7.5-7.5c0-4.143-3.358-7.5-7.5-7.5h-32.877c-4.142,0-7.5,3.357-7.5,7.5
		c0,4.143,3.358,7.5,7.5,7.5H148.094z"/>
</g>
</svg>
