<svg version="1.1" xmlns="http://www.w3.org/2000/svg" xmlns:xlink="http://www.w3.org/1999/xlink" x="0px" y="0px"
	 viewBox="0 0 262.087 262.087" style="enable-background:new 0 0 262.087 262.087;" xml:space="preserve">
<path d="M226.185,42.936h-77.026l30.116-30.107c2.929-2.929,2.93-7.677,0.001-10.607c-2.928-2.929-7.677-2.93-10.606-0.002
	L131.05,39.83L93.419,2.196c-2.929-2.928-7.678-2.929-10.607,0c-2.929,2.929-2.929,7.678,0,10.607l30.131,30.133H35.888
	c-11.041,0-20.022,8.982-20.022,20.023v142.52c0,11.048,8.982,20.037,20.022,20.037h87.649v21.571H77.204
	c-4.142,0-7.5,3.358-7.5,7.5c0,4.142,3.358,7.5,7.5,7.5h107.679c4.143,0,7.5-3.358,7.5-7.5c0-4.142-3.357-7.5-7.5-7.5h-46.346
	v-21.571h87.648c11.049,0,20.037-8.989,20.037-20.037V62.96C246.222,51.919,237.234,42.936,226.185,42.936z M30.865,88.461h200.357
	v91.521H30.865V88.461z M35.888,57.936h190.298c2.777,0,5.037,2.253,5.037,5.023v10.501H30.865V62.96
	C30.865,60.19,33.118,57.936,35.888,57.936z M226.185,210.516H35.888c-2.77,0-5.022-2.26-5.022-5.037v-10.497h200.357v10.497
	C231.222,208.257,228.963,210.516,226.185,210.516z"/>
</svg>
