<svg version="1.1" xmlns="http://www.w3.org/2000/svg" xmlns:xlink="http://www.w3.org/1999/xlink" x="0px" y="0px"
	 viewBox="0 0 233.941 233.941" style="enable-background:new 0 0 233.941 233.941;" xml:space="preserve">
<g>
	<path d="M230.467,16.364c-2.167-1.378-4.882-1.552-7.205-0.465l-48.794,22.837h-55.183V21.559c0-4.142-3.358-7.5-7.5-7.5H29.58
		c-4.143,0-7.5,3.358-7.5,7.5v24.677c0,4.142,3.357,7.5,7.5,7.5h7.543v59.076c0,4.142,3.357,7.5,7.5,7.5h16.326l9.781,21.784
		c1.21,2.694,3.889,4.428,6.842,4.428h14.084l-55.084,52.566c-2.997,2.859-3.107,7.607-0.248,10.604
		c1.474,1.544,3.448,2.322,5.427,2.322c1.86,0,3.725-0.688,5.177-2.074l55.951-53.393v67.604c0,4.142,3.357,7.5,7.5,7.5
		s7.5-3.358,7.5-7.5V156.03l56.073,51.208c1.438,1.314,3.25,1.962,5.056,1.962c2.033,0,4.061-0.822,5.54-2.442
		c2.793-3.059,2.578-7.802-0.48-10.596l-54.354-49.639h13.475c2.953,0,5.632-1.733,6.842-4.428l9.781-21.784h14.658l48.794,22.835
		c1.011,0.473,2.096,0.707,3.179,0.707c1.404,0,2.803-0.394,4.025-1.172c2.164-1.376,3.475-3.763,3.475-6.328V22.692
		C233.941,20.127,232.631,17.74,230.467,16.364z M37.08,29.059h67.205v9.677H44.623H37.08V29.059z M52.123,53.736h59.662h56.852
		v51.576h-13.68H65.803h-13.68V53.736z M138.334,131.524H82.426l-5.034-11.212h65.977L138.334,131.524z M218.941,124.563
		l-35.305-16.522V51.006l35.305-16.523V124.563z"/>
	<path d="M7.5,2.289c-4.143,0-7.5,3.358-7.5,7.5v48.214c0,4.142,3.357,7.5,7.5,7.5s7.5-3.358,7.5-7.5V9.79
		C15,5.648,11.643,2.289,7.5,2.289z"/>
</g>
</svg>
