<svg version="1.1" xmlns="http://www.w3.org/2000/svg" xmlns:xlink="http://www.w3.org/1999/xlink" x="0px" y="0px"
	 viewBox="0 0 270.189 270.189" style="enable-background:new 0 0 270.189 270.189;" xml:space="preserve">
<g>
	<path d="M153.068,190.833c44.518-8.442,78.288-47.634,78.288-94.572C231.356,43.183,188.174,0,135.095,0
		S38.833,43.183,38.833,96.262c0,46.938,33.77,86.129,78.289,94.572c-32.185,8.054-56.098,37.21-56.098,71.856
		c0,4.142,3.358,7.5,7.5,7.5h133.143c4.143,0,7.5-3.358,7.5-7.5C209.166,228.043,185.253,198.888,153.068,190.833z M53.833,96.262
		C53.833,51.454,90.287,15,135.095,15c44.808,0,81.262,36.454,81.262,81.262c0,44.808-36.454,81.262-81.262,81.262
		C90.287,177.523,53.833,141.07,53.833,96.262z M76.497,255.189c3.697-29.044,28.566-51.572,58.598-51.572
		c30.031,0,54.9,22.528,58.598,51.572H76.497z"/>
	<path d="M191.413,96.262c0-31.054-25.265-56.318-56.318-56.318c-31.055,0-56.319,25.264-56.319,56.318
		c0,31.055,25.265,56.319,56.319,56.319C166.148,152.581,191.413,127.316,191.413,96.262z M93.775,96.262
		c0-22.783,18.536-41.318,41.319-41.318c22.783,0,41.318,18.535,41.318,41.318c0,22.784-18.535,41.319-41.318,41.319
		C112.311,137.581,93.775,119.045,93.775,96.262z"/>
	<path d="M167.004,96.262c0-17.595-14.314-31.909-31.909-31.909c-17.595,0-31.91,14.314-31.91,31.909
		c0,17.595,14.315,31.91,31.91,31.91C152.689,128.172,167.004,113.857,167.004,96.262z M118.184,96.262
		c0-9.324,7.586-16.909,16.91-16.909c9.324,0,16.909,7.585,16.909,16.909c0,9.324-7.585,16.91-16.909,16.91
		C125.77,113.172,118.184,105.586,118.184,96.262z"/>
</g>
</svg>
