<svg version="1.1"  xmlns="http://www.w3.org/2000/svg" xmlns:xlink="http://www.w3.org/1999/xlink" x="0px" y="0px"
	 viewBox="0 0 218.765 218.765" style="enable-background:new 0 0 218.765 218.765;" xml:space="preserve">
<g>
	<path d="M179.646,49.179c-2.929-2.93-7.678-2.929-10.606,0c-2.929,2.929-2.929,7.678,0,10.607
		c15.936,15.936,24.712,37.122,24.712,59.657c0,22.535-8.776,43.722-24.712,59.657c-32.896,32.896-86.42,32.896-119.315,0
		c-15.936-15.935-24.711-37.121-24.711-59.657c0-22.536,8.776-43.722,24.711-59.657c12.33-12.33,27.81-20.35,44.619-23.359
		L82.945,53.138c-2.334,3.422-1.452,8.088,1.97,10.422c1.294,0.882,2.764,1.305,4.219,1.305c2.396,0,4.751-1.146,6.203-3.274
		l20.315-29.785c0.001-0.002,0.003-0.004,0.004-0.005c2.334-3.422,1.452-8.088-1.97-10.422L84.254,1.305
		c-3.425-2.335-8.089-1.452-10.422,1.97c-2.334,3.422-1.452,8.088,1.97,10.422l12.596,8.591
		c-18.534,3.965-35.561,13.172-49.28,26.891c-18.768,18.768-29.105,43.721-29.105,70.264s10.336,51.496,29.105,70.264
		c19.374,19.374,44.815,29.061,70.264,29.058c25.443-0.002,50.894-9.689,70.264-29.058c18.769-18.768,29.106-43.722,29.106-70.264
		S198.415,67.948,179.646,49.179z"/>
	<path d="M101.844,105.799c0-13.567-11.037-24.604-24.604-24.604c-13.566,0-24.603,11.038-24.603,24.604c0,4.142,3.358,7.5,7.5,7.5
		c4.142,0,7.5-3.358,7.5-7.5c0-5.296,4.308-9.604,9.603-9.604c5.295,0,9.604,4.309,9.604,9.604c0,2.564-0.999,4.976-2.813,6.789
		c-0.089,0.089-0.176,0.18-0.26,0.274L54.573,145.16c-1.988,2.199-2.494,5.363-1.291,8.073c1.203,2.71,3.89,4.456,6.854,4.456
		h34.207c4.142,0,7.5-3.358,7.5-7.5c0-4.142-3.358-7.5-7.5-7.5H77.027l17.755-19.641
		C99.338,118.419,101.844,112.302,101.844,105.799z"/>
	<path d="M109.605,137.817c1.275,2.529,3.866,4.125,6.698,4.125h26.359v8.248c0,4.142,3.358,7.5,7.5,7.5c4.142,0,7.5-3.358,7.5-7.5
		v-8.248h0.965c4.142,0,7.5-3.358,7.5-7.5c0-4.142-3.358-7.5-7.5-7.5h-0.965V88.695c0-3.237-2.077-6.109-5.151-7.123
		c-3.073-1.013-6.452,0.059-8.377,2.661l-33.859,45.747C108.59,132.256,108.331,135.288,109.605,137.817z M142.662,111.434v15.507
		h-11.478L142.662,111.434z"/>
</g>
</svg>
