<svg version="1.1" xmlns="http://www.w3.org/2000/svg" xmlns:xlink="http://www.w3.org/1999/xlink" x="0px" y="0px"
	 viewBox="-703 285 512 512" style="enable-background:new -703 285 512 512;" xml:space="preserve">
<path fill="#2C2E32" d="M-368.6,412.8h-73c0,0-0.1,0-0.1-0.1v-42c0-41.9-34.1-66.5-76-65.7c-40.6,0.7-73.4,23.9-73.4,64.7v43
	c0,0,0,0.1-0.1,0.1h-73.2c-19.8,0-36.5,14.9-38.7,34.6c0,0.2,0,0.3,0,0.5l0.2,316.2c-1.1,10.9,2.4,21.8,9.7,30c7.4,8.2,18,13,29,13
	h295.4c11,0,21.6-4.7,29-12.9c7.3-8.2,10.9-19.1,9.7-29.9l0.1-316.2 M-329.9,447.5c-2.2-19.8-18.8-34.7-38.7-34.7 M-329.9,448
	c0-0.2,0-0.3,0-0.5 M-561.1,369.7c0-23.8,18.7-33.4,42.2-34.7c26-1.5,47.3,9.5,47.3,35.6v42.1c0,0,0,0.1-0.1,0.1h-89.4
	c0,0-0.1,0-0.1-0.1V369.7z M-359.8,766.6c0,0.2,0,0.3,0,0.5"/>
</svg>
