<!DOCTYPE svg PUBLIC "-//W3C//DTD SVG 1.1//EN" "http://www.w3.org/Graphics/SVG/1.1/DTD/svg11.dtd">
<svg xmlns="http://www.w3.org/2000/svg" xmlns:xlink="http://www.w3.org/1999/xlink" version="1.1" id="Capa_1" x="0px" y="0px" viewBox="0 0 974.034 974.034" style="enable-background:new 0 0 974.034 974.034;" xml:space="preserve">
	<g>
		<g>
			<path d="M949.123,752.235c-2.293-1.855-24.005-20.188-45.617-64.878c-38.726-80.075-47.023-180.69-47.167-250.996    c-0.161-79.552-16.917-148.163-49.802-203.927c-27.454-46.555-66.003-84.114-114.576-111.633    C608.383,73.45,518.563,69.771,493.024,69.771c-3.046,0-5.31,0.049-6.706,0.091c-1.403-0.042-3.687-0.091-6.764-0.091    c-16.305,0-59.706,1.451-110.444,14.892c-64.511,17.087-118.176,46.933-159.506,88.705    c-63.086,63.762-94.473,152.387-93.289,263.413c0.729,68.354-6.71,166.932-46.286,248.378    c-22.359,46.017-45.216,65.927-47.295,67.679L0,769.442l14.128,25.466c2.198,3.963,55.124,97.058,166.411,97.058    c41.078,0,84.359-12.996,128.911-38.676c31.034,18.588,96.619,50.974,176.876,50.974s145.843-32.385,176.876-50.974    c44.55,25.678,87.83,38.674,128.91,38.676c0.007,0,0.001,0,0.008,0c111.294,0,164.209-93.1,166.406-97.062l15.508-25.902    L949.123,752.235z M330.76,788.55l0.387-0.506c-8.2-6.269-23.529-24.836-34.071-78.744    c-7.305-37.354-11.016-84.995-11.031-141.603c-0.015-56.851,3.771-111.372,6.984-147.378    c27.754,10.626,67.53,24.79,113.748,38.104c103.223,29.736,192.568,42.333,266.242,37.581    c2.333,27.737,5.044,70.272,4.689,115.314c-0.233,29.809-1.716,54.752-3.99,75.641c-7.679,5.884-16.724,11.444-27.113,16.656    c-32.033,16.069-75.785,28.292-130.389,36.456v-3.979c0-18.226-14.773-33-33-33c-18.226,0-33,14.774-33,33v78.238l36.556-3.961    c66.774-7.236,122.312-19.685,165.6-37.079c-4.02,7.746-7.82,12.547-10.777,15.477c-9.582,6.759-73.453,49.496-155.268,49.496    C404.424,838.264,339.298,794.542,330.76,788.55z M872.411,795.558c-23.618,20.18-50.634,30.411-80.297,30.408    c-25.19,0-52.458-7.375-81.369-21.965c11.387-21.884,19.783-50.053,25.255-84.77c11.139-12.084,19.748-25.246,25.749-39.437    c26.322-62.233-6.273-121.638-19.748-142.136c-2.38-46.521-6.389-79.906-6.637-81.94L731.259,422l-33.585,5.077    c-87.179,13.182-195.898-10.033-271.754-31.825c-83.914-24.107-147.245-51.924-147.865-52.198l-40.553-17.937l-5.538,43.995    c-0.486,3.86-11.898,95.712-11.919,197.973c-0.023,111.771,13.332,190.198,40.635,237.526    c-28.457,14.181-55.31,21.354-80.141,21.354c-29.658,0-56.672-10.231-80.294-30.411c-5.447-4.654-10.124-9.355-14.021-13.69    c11.601-13.755,26.149-34.077,40.412-62.298c16.871-33.38,30.14-71.506,39.44-113.317    c11.429-51.383,16.892-108.637,16.236-170.173c-0.989-92.75,23.979-165.521,74.209-216.29    c79.118-79.965,199.671-84.016,223.034-84.016c3.328,0,5.205,0.076,5.229,0.076l1.41,0.08l1.627-0.077    c0.019-0.001,1.866-0.079,5.204-0.079c21.457,0,96.87,3.062,166.401,42.455c86.619,49.074,130.664,135.968,130.912,258.27    c0.128,63.187,6.063,121.42,17.641,173.085c9.439,42.129,22.66,80.127,39.293,112.938c13.678,26.983,27.604,46.37,38.915,59.62    C882.339,786.398,877.745,791,872.411,795.558z" fill="#2c2e32"/>
			<circle cx="385.244" cy="569.265" r="36.805" fill="#2c2e32"/>
			<circle cx="574.162" cy="569.265" r="36.805" fill="#2c2e32"/>
		</g>
	</g>
</svg>
