<svg version="1.1" xmlns="http://www.w3.org/2000/svg" xmlns:xlink="http://www.w3.org/1999/xlink" x="0px" y="0px"
	 viewBox="0 0 404 314" style="enable-background:new 0 0 404 314;" xml:space="preserve">
<path d="M260,81H56.2l49.4-49.4c5.9-5.9,5.9-15.4,0-21.2c-5.9-5.9-15.4-5.9-21.2,0l-75,75c-5.9,5.9-5.9,15.4,0,21.2
	l75,75c2.9,2.9,6.8,4.4,10.6,4.4s7.7-1.5,10.6-4.4c5.9-5.9,5.9-15.4,0-21.2L56.2,111H260c8.3,0,15-6.7,15-15S268.3,81,260,81z"/>
<path d="M130,219c0,8.3,6.7,15,15,15h203.8l-49.4,49.4c-5.9,5.8-5.9,15.3,0,21.2c2.9,2.9,6.8,4.4,10.6,4.4
	s7.7-1.5,10.6-4.4l75-75c5.9-5.8,5.9-15.3,0-21.2l-75-75c-5.8-5.9-15.3-5.9-21.2,0c-5.9,5.8-5.9,15.3,0,21.2l49.4,49.4H145
	C136.7,204,130,210.7,130,219z"/>
</svg>
