<svg xmlns="http://www.w3.org/2000/svg" viewBox="0 0 26 26">
  <path fill-rule="evenodd" d="M1449.8,87.8a2.6,2.6,0,1,0,2.6,2.6A2.589,2.589,0,0,0,1449.8,87.8Zm1.43-6.5h9.68a2.612,2.612,0,0,0,2.28-1.339l4.65-8.437a1.3,1.3,0,0,0-1.14-1.924h-19.22l-1.24-2.6H1442v2.6h2.6l4.67,9.861-1.75,3.185a2.661,2.661,0,0,0-.32,1.254,2.6,2.6,0,0,0,2.6,2.6h15.6V83.9h-15.05a0.319,0.319,0,0,1-.32-0.325,0.272,0.272,0,0,1,.04-0.156Zm11.57,6.5a2.6,2.6,0,1,0,2.6,2.6A2.589,2.589,0,0,0,1462.8,87.8Z" transform="translate(-1442 -67)"/>
</svg>
