<svg viewBox="0 0 38 33" xmlns="http://www.w3.org/2000/svg">
<path d="M12.0739 21.8206H31.7852C32.2733 21.8206 32.7014 21.4978 32.8336 21.029L37.1979 5.75453C37.2917 5.42524 37.2274 5.07151 37.0209 4.7979C36.8141 4.52515 36.4924 4.36406 36.1492 4.36406H9.55518L8.77528 0.854628C8.66447 0.354864 8.22124 0 7.70983 0H1.09101C0.488115 0 0 0.488115 0 1.09101C0 1.6942 0.488115 2.18203 1.09101 2.18203H6.83418L10.774 19.911C9.61485 20.415 8.80085 21.5688 8.80085 22.9116C8.80085 24.7163 10.2692 26.1846 12.0739 26.1846H31.7852C32.3883 26.1846 32.8762 25.6968 32.8762 25.0936C32.8762 24.4907 32.3883 24.0026 31.7852 24.0026H12.0739C11.473 24.0026 10.9829 23.5136 10.9829 22.9116C10.9829 22.3095 11.473 21.8206 12.0739 21.8206Z"/>
<path d="M10.9829 29.4576C10.9829 31.2626 12.4512 32.7307 14.2562 32.7307C16.061 32.7307 17.5293 31.2626 17.5293 29.4576C17.5293 27.6529 16.061 26.1846 14.2562 26.1846C12.4512 26.1846 10.9829 27.6529 10.9829 29.4576Z"/>
<path d="M26.3301 29.4576C26.3301 31.2626 27.7984 32.7307 29.6031 32.7307C31.4081 32.7307 32.8762 31.2626 32.8762 29.4576C32.8762 27.6529 31.4081 26.1846 29.6031 26.1846C27.7984 26.1846 26.3301 27.6529 26.3301 29.4576Z"/>
</svg>
