<svg version="1.1" id="Capa_1" xmlns="http://www.w3.org/2000/svg" xmlns:xlink="http://www.w3.org/1999/xlink" x="0px" y="0px"
	 viewBox="0 0 512 512" style="enable-background:new 0 0 512 512;" xml:space="preserve">
<g transform="translate(1 1)">
	<g>
		<g>
			<path fill="#A3AAAF" d="M436.02,73.98c-99.98-99.98-262.08-99.98-362.03,0c-99.98,99.98-99.98,262.07,0,362.03
				c99.95,99.98,262.05,99.98,362.03,0C535.99,336.06,535.99,173.96,436.02,73.98z M405.85,405.84
				c-83.32,83.32-218.4,83.32-301.69,0c-83.32-83.3-83.32-218.38,0-301.69c83.3-83.32,218.37-83.32,301.69,0
				S489.16,322.55,405.85,405.84z"/>
			<path fill="#A3AAAF" d="M360.59,149.41c-8.33-8.33-21.84-8.33-30.17,0L255,224.83l-75.43-75.43c-8.33-8.33-21.84-8.33-30.17,0
				s-8.33,21.84,0,30.17L224.83,255l-75.4,75.4c-8.33,8.33-8.33,21.84,0,30.17c8.33,8.33,21.84,8.33,30.17,0l75.4-75.4l75.42,75.42
				c8.33,8.33,21.84,8.33,30.17,0c8.33-8.33,8.33-21.84,0-30.17L285.17,255l75.42-75.43C368.92,171.25,368.92,157.74,360.59,149.41z
				"/>
		</g>
	</g>
</g>
</svg>
