<svg version="1.1" id="Capa_1" xmlns="http://www.w3.org/2000/svg" xmlns:xlink="http://www.w3.org/1999/xlink" x="0px" y="0px"
	 viewBox="0 0 512 512" style="enable-background:new 0 0 512 512;" xml:space="preserve">
<g>
	<g>
		<path fill="#D5D7D7" d="M256,0C114.5,0,0,114.5,0,256c0,141.5,114.5,256,256,256c141.5,0,256-114.5,256-256C512,114.5,397.5,0,256,0z
			 M256,472c-119.4,0-216-96.6-216-216c0-119.4,96.6-216,216-216c119.4,0,216,96.6,216,216C472,375.4,375.4,472,256,472z"/>
	</g>
</g>
<g>
	<g>
		<path fill="#D5D7D7" d="M343.6,315.3L284.3,256l59.3-59.3c7.8-7.8,7.8-20.5,0-28.3c-7.8-7.8-20.5-7.8-28.3,0L256,227.7l-59.3-59.3
			c-7.8-7.8-20.5-7.8-28.3,0s-7.8,20.5,0,28.3l59.3,59.3l-59.3,59.3c-7.8,7.8-7.8,20.5,0,28.3c7.8,7.8,20.5,7.8,28.3,0l59.3-59.3
			l59.3,59.3c7.8,7.8,20.5,7.8,28.3,0S351.4,323.1,343.6,315.3z"/>
	</g>
</g>
</svg>
