<!DOCTYPE svg PUBLIC "-//W3C//DTD SVG 1.1//EN" "http://www.w3.org/Graphics/SVG/1.1/DTD/svg11.dtd">
<svg xmlns="http://www.w3.org/2000/svg" xmlns:xlink="http://www.w3.org/1999/xlink" version="1.1" id="Capa_1" x="0px" y="0px" viewBox="0 0 973.367 973.367" style="enable-background:new 0 0 973.367 973.367;" xml:space="preserve">
	<g>
		<g>
			<path d="M1.125,0v565.479h382.283c4.293,29.471,11.418,64.189,23.185,101.183c19.36,60.863,47.349,115.438,83.186,162.205    c45.082,58.831,102.567,105.198,170.861,137.812l14.007,6.688l14.006-6.688c68.294-32.614,125.779-78.981,170.861-137.812    c35.837-46.768,63.824-101.342,83.186-162.205c32.747-102.946,29.545-188.293,29.393-191.876l-1.192-28.078l-27.957-2.871    c-34.271-3.521-66.315-11.38-94.815-20.962V0H1.125z M783.125,195.337h-717v-30.578h717V195.337z M66.125,65h717v34.759h-717V65z     M880.756,646.958c-17.077,53.685-41.583,101.586-72.837,142.373c-35.671,46.55-80.449,84.066-133.273,111.69    c-52.445-27.427-96.968-64.607-132.507-110.691c-31.221-40.483-55.766-88.037-72.953-141.34    c-9.688-30.045-15.937-58.612-19.958-83.512c-3.979-24.627-5.779-45.666-6.57-60.981c7.171-1.196,14.234-2.543,21.188-4.019    c99.133-21.019,175.635-68.645,210.8-93.753c21.779,15.551,59.424,39.743,108.479,60.9c19.889,8.579,41.655,16.657,65,23.46    c18.57,5.411,38.138,10.015,58.557,13.418C905.143,534.838,899.613,587.677,880.756,646.958z M766.64,387.382    c-44.042-23.777-70.763-46.108-70.985-46.297l-21.009-17.8l-21.011,17.801c-1.038,0.88-105.527,88.189-247.284,102.75    l-27.955,2.871l-1.194,28.078c-0.048,1.128-0.397,10.363,0.167,25.693H66.125V260.337h717v135.572    C777.271,393.009,771.764,390.147,766.64,387.382z" fill="#2c2e32"/>
			<polygon points="777.99,549.207 761.717,565.479 732.644,594.553 647.853,679.344 604.881,636.371 593.235,624.725     570.253,647.705 547.271,670.686 647.853,771.268 823.951,595.169 794.261,565.479   " fill="#2c2e32"/>
			<rect x="100.655" y="405.985" width="62.997" height="62.997" fill="#2c2e32"/>
		</g>
	</g>
</svg>
