<!DOCTYPE svg PUBLIC "-//W3C//DTD SVG 1.1//EN" "http://www.w3.org/Graphics/SVG/1.1/DTD/svg11.dtd">
<svg xmlns="http://www.w3.org/2000/svg" xmlns:xlink="http://www.w3.org/1999/xlink" version="1.1" x="0px" y="0px" viewBox="0 0 949.25 949.25" style="enable-background:new 0 0 949.25 949.25;" xml:space="preserve">
	<g>
		<g>
			<path d="M447.628,815.401V949.25h30.5c50.93,0,100.354-9.98,146.895-29.667c44.939-19.008,85.293-46.213,119.938-80.857    c34.646-34.646,61.852-74.999,80.859-119.938c19.686-46.542,29.666-95.964,29.666-146.894v-13.799V377.357    c0-50.93-9.98-100.352-29.666-146.894c-19.008-44.939-46.213-85.292-80.859-119.938c-34.645-34.646-74.998-61.851-119.938-80.858    C578.481,9.981,529.058,0,478.128,0h-7.006C420.193,0,370.77,9.981,324.228,29.667c-44.939,19.008-85.292,46.213-119.938,80.858    c-34.646,34.646-61.851,74.999-80.858,119.938c-19.686,46.542-29.667,95.964-29.667,146.894v180.735    c0,90.245,73.42,163.665,163.666,163.665h30.5v-327.33h-30.5c-38.847,0-74.568,13.613-102.666,36.309v-53.378    c0-84.502,32.907-163.946,92.659-223.698S386.62,61.001,471.122,61.001h7.006c84.502,0,163.947,32.907,223.699,92.659    s92.658,139.196,92.658,223.698v53.378c-28.098-22.694-63.818-36.309-102.666-36.309h-30.5v327.331h30.5    c26.562,0,51.666-6.365,73.871-17.646c-15.471,33.598-36.93,64.543-63.863,91.478c-29.574,29.573-63.975,52.572-101.42,68.26    l1.012-48.448L447.628,815.401L447.628,815.401z M226.93,460.053v196.081c-41.766-13.019-72.166-52.045-72.166-98.04    C154.765,512.097,185.164,473.071,226.93,460.053z M722.321,656.134V460.053c41.766,13.02,72.166,52.046,72.166,98.041    S764.087,643.115,722.321,656.134z M539.005,882.435c-10.006,1.938-20.135,3.399-30.377,4.374v-10.407h30.502L539.005,882.435z" fill="#2c2e32"/>
		</g>
	</g>
</svg>
