<svg version="1.1"  xmlns="http://www.w3.org/2000/svg" xmlns:xlink="http://www.w3.org/1999/xlink" x="0px" y="0px"
	 viewBox="0 0 200.439 200.439" style="enable-background:new 0 0 200.439 200.439;" xml:space="preserve">
<g>
	<path d="M96.452,177.904c-44.912,0-81.451-36.54-81.451-81.453C15.001,51.539,51.54,15,96.452,15
		c44.913,0,81.453,36.539,81.453,81.451c0,4.143,3.357,7.5,7.5,7.5c4.143,0,7.5-3.357,7.5-7.5C192.905,43.268,149.637,0,96.452,0
		C43.269,0,0.001,43.268,0.001,96.451c0,53.185,43.268,96.453,96.451,96.453c4.143,0,7.5-3.357,7.5-7.5
		C103.952,181.262,100.595,177.904,96.452,177.904z"/>
	<path d="M96.454,147.66c-28.236,0-51.209-22.973-51.209-51.209c0-28.236,22.973-51.209,51.209-51.209
		c28.235,0,51.207,22.973,51.207,51.209c0,4.143,3.357,7.5,7.5,7.5c4.143,0,7.5-3.357,7.5-7.5c0-36.508-29.7-66.209-66.207-66.209
		c-36.508,0-66.209,29.701-66.209,66.209c0,36.508,29.701,66.209,66.209,66.209c4.143,0,7.5-3.357,7.5-7.5
		C103.954,151.018,100.597,147.66,96.454,147.66z"/>
	<path d="M198.243,187.637l-25.295-25.304l13.336-13.337c1.849-1.849,2.602-4.527,1.985-7.069c-0.616-2.542-2.512-4.579-5.002-5.376
		l-54.837-17.557c-2.675-0.855-5.604-0.146-7.591,1.84c-1.986,1.986-2.695,4.915-1.839,7.59l17.562,54.834
		c0.798,2.491,2.835,4.386,5.377,5.002c0.585,0.142,1.178,0.211,1.766,0.211c1.965,0,3.88-0.773,5.304-2.197l13.332-13.333
		l25.293,25.302c1.465,1.465,3.385,2.197,5.305,2.197c1.919,0,3.838-0.731,5.303-2.195
		C201.17,195.315,201.171,190.566,198.243,187.637z M147.097,166.972l-9.368-29.251l29.253,9.365L147.097,166.972z"/>
	<path d="M108.147,83.102c0,2.762,2.238,5,5,5c2.762,0,5-2.238,5-5c0-8.666-7.135-15.943-16.693-17.859v-2.174c0-2.762-2.238-5-5-5
		c-2.762,0-5,2.238-5,5v2.174c-9.559,1.916-16.693,9.193-16.693,17.859c0,8.661,7.135,15.935,16.693,17.851v16.361
		c-3.915-1.366-6.693-4.25-6.693-7.507c0-2.762-2.238-5-5-5c-2.762,0-5,2.238-5,5c0,8.662,7.135,15.937,16.693,17.853v2.177
		c0,2.762,2.238,5,5,5c2.762,0,5-2.238,5-5v-2.177c9.559-1.916,16.693-9.191,16.693-17.853c0-8.666-7.135-15.943-16.693-17.859
		V75.588C105.368,76.956,108.147,79.843,108.147,83.102z M84.76,83.102c0-3.259,2.778-6.146,6.693-7.514v15.019
		C87.538,89.24,84.76,86.356,84.76,83.102z M108.147,109.807c0,3.257-2.778,6.141-6.693,7.507v-15.021
		C105.368,103.661,108.147,106.548,108.147,109.807z"/>
</g>
</svg>
