<svg viewBox="0 0 35 43" fill="none" xmlns="http://www.w3.org/2000/svg">
<path d="M19.6994 9.17603C22.9075 6.48104 25.0512 0.409619 23.7319 0.144069C21.9791 -0.208905 18.1727 1.33884 16.3329 1.61154C13.7234 1.92661 10.8814 -1.21811 9.28608 0.534753C7.989 1.95995 10.216 7.14293 13.7002 9.4009C3.30526 14.5099 -11.3055 40.1572 14.1838 42.0182C49.4526 44.5932 31.7922 14.1546 19.6994 9.17603ZM22.7283 29.4028C22.6198 30.4026 22.0899 31.3069 21.2978 31.9207C20.4615 32.5689 19.4125 32.8704 18.3702 32.9548V34.0596C18.3702 34.3552 18.2411 34.6411 18.0199 34.8368C17.7157 35.1059 17.2688 35.1723 16.8996 35.0022C16.5351 34.8345 16.2957 34.4607 16.2957 34.0596V32.8521C16.1169 32.8182 15.9395 32.7778 15.7642 32.7297C14.7901 32.462 13.8866 31.9404 13.2266 31.1685C12.8978 30.7838 12.6298 30.3473 12.4444 29.876C12.396 29.7529 12.3528 29.6274 12.315 29.5006C12.2808 29.3858 12.2454 29.2691 12.2332 29.1494C12.2127 28.9487 12.2525 28.7439 12.3461 28.565C12.5384 28.1972 12.9436 27.975 13.3574 28.0119C13.7647 28.048 14.1216 28.3306 14.2499 28.7188C14.2894 28.8384 14.3161 28.961 14.3605 29.0793C14.4045 29.1968 14.4576 29.311 14.52 29.4197C14.6432 29.6339 14.7976 29.8314 14.9755 30.0027C15.342 30.3559 15.8089 30.5854 16.2957 30.722V26.6175C15.3439 26.3711 14.3615 26.0528 13.5756 25.4417C13.1936 25.1446 12.8695 24.7755 12.6573 24.3386C12.4333 23.8774 12.3405 23.3637 12.3367 22.8534C12.3329 22.3353 12.4313 21.8218 12.6474 21.3497C12.8499 20.9078 13.1413 20.5109 13.4987 20.182C14.2628 19.4787 15.2777 19.0864 16.2958 18.9423V18.852V17.7955C16.2958 17.5 16.4249 17.214 16.6462 17.0183C16.9504 16.7493 17.3972 16.6828 17.7664 16.8529C18.1308 17.0207 18.3703 17.3944 18.3703 17.7955V18.852V18.9361C18.506 18.9531 18.6413 18.9736 18.7758 18.998C19.7755 19.1789 20.7532 19.5917 21.4843 20.3125C21.8306 20.6538 22.1141 21.0606 22.3135 21.5041C22.3692 21.6279 22.4179 21.7545 22.4601 21.8836C22.4994 22.004 22.5389 22.1279 22.5576 22.2536C22.5876 22.4541 22.557 22.6613 22.4712 22.8448C22.2953 23.2207 21.901 23.46 21.4861 23.4423C21.0784 23.4245 20.7091 23.1591 20.5631 22.778C20.5196 22.6647 20.4979 22.5447 20.4536 22.4317C20.4088 22.3173 20.3509 22.2081 20.2841 22.105C20.1543 21.9046 19.9861 21.7327 19.7941 21.5911C19.3783 21.284 18.874 21.1241 18.37 21.0347V24.9625C18.9689 25.1059 19.5683 25.2623 20.1421 25.4886C21.0093 25.8305 21.831 26.3549 22.3044 27.1817C22.2309 27.0529 22.1595 26.9274 22.3069 27.186C22.4515 27.44 22.3825 27.319 22.3098 27.1916C22.6864 27.8553 22.8102 28.6489 22.7283 29.4028Z" fill="#1C91D3"/>
</svg>
