<svg width="66" height="66" viewBox="0 0 66 66" fill="none" xmlns="http://www.w3.org/2000/svg">
<g clip-path="url(#clip0_29_567)">
<path d="M65.2205 31.4192L62.2603 29.1479L64.5317 26.1877C65.3292 25.1483 64.9238 23.6352 63.7134 23.1337L60.2662 21.7059L61.6941 18.2588C62.1955 17.0483 61.4123 15.6917 60.1133 15.5208L56.4141 15.0338L56.901 11.3345C57.0721 10.0356 55.9644 8.92782 54.6654 9.09886L53.0847 9.30695V56.693L54.6654 56.9011C55.9644 57.0721 57.0721 55.9644 56.901 54.6654L56.4141 50.9662L60.1133 50.4793C61.4123 50.3082 62.1955 48.9517 61.6941 47.7413L60.2662 44.2941L63.7134 42.8663C64.9238 42.365 65.3292 40.8519 64.5317 39.8124L62.2603 36.8522L65.2205 34.5808C66.2599 33.7833 66.2599 32.2168 65.2205 31.4192Z" fill="#FA6348"/>
<path d="M50.479 60.113L50.966 56.4138L53.0845 56.6927C53.7086 56.3226 54.1163 55.5381 54.0153 54.6652L53.587 50.966L56.8396 50.479C57.9818 50.308 58.6705 48.9515 58.2296 47.741L56.9741 44.2939L60.0051 42.8661C61.0694 42.3647 61.4259 40.8517 60.7246 39.8121L58.7274 36.852L61.3302 34.5806C62.2442 33.783 62.2442 32.2165 61.3302 31.419L58.7274 29.1476L60.7246 26.1874C61.4259 25.148 61.0693 23.635 60.0051 23.1335L56.9741 21.7057L58.2296 18.2585C58.6705 17.0481 57.9818 15.6915 56.8396 15.5205L53.587 15.0336L54.0153 11.3343C54.1163 10.4614 53.7086 9.67696 53.0844 9.30672L50.9659 9.58572L50.9239 9.26728L50.4788 5.88654C50.3077 4.58752 48.9512 3.80442 47.7408 4.30572L44.2936 5.73355L42.8658 2.28642C42.3643 1.07597 40.8513 0.670546 39.8119 1.46812L36.8517 3.73948L34.5806 0.779306C33.783 -0.260094 32.2165 -0.260094 31.419 0.779306L29.1476 3.73948L26.1874 1.46812C25.148 0.670546 23.635 1.07597 23.1335 2.28642L21.7057 5.73355L18.2585 4.30572C17.0481 3.80442 15.6915 4.58765 15.5205 5.88654L15.0336 9.58572L11.3344 9.09876C10.0354 8.92772 8.92772 10.0354 9.09876 11.3344L9.58572 15.0336L5.88654 15.5205C4.58765 15.6916 3.80428 17.0481 4.30572 18.2585L5.73355 21.7057L2.28642 23.1335C1.07597 23.635 0.670546 25.1479 1.46812 26.1874L3.73948 29.1476L0.779306 31.419C-0.260094 32.2165 -0.260094 33.783 0.779306 34.5806L3.73948 36.852L1.46812 39.8121C0.670546 40.8515 1.07597 42.3646 2.28642 42.8661L5.73355 44.2939L4.30572 47.741C3.80428 48.9515 4.58752 50.3081 5.88654 50.479L9.58572 50.966L9.09876 54.6652C8.92772 55.9642 10.0354 57.0719 11.3344 56.9008L15.0336 56.4138L15.5205 60.113C15.6916 61.4119 17.0481 62.1952 18.2585 61.6938L21.7057 60.266L23.1335 63.7132C23.6348 64.9236 25.1479 65.329 26.1874 64.5314L29.1476 62.2601L31.419 65.2203C32.2165 66.2597 33.783 66.2597 34.5806 65.2203L36.852 62.2601L39.8121 64.5314C40.8515 65.329 42.3646 64.9236 42.8661 63.7132L44.2939 60.266L47.741 61.6938C48.9515 62.1953 50.308 61.412 50.479 60.113Z" fill="#FC7C49"/>
<path d="M42.8596 34.8918C38.4591 34.8918 34.8918 38.4591 34.8918 42.8596C34.8918 47.2601 38.4591 50.8274 42.8596 50.8274C47.2601 50.8274 50.8274 47.2601 50.8274 42.8596C50.8274 38.4591 47.2601 34.8918 42.8596 34.8918ZM42.8596 46.8435C40.6594 46.8435 38.8757 45.0599 38.8757 42.8596C38.8757 40.6594 40.6594 38.8757 42.8596 38.8757C45.0599 38.8757 46.8435 40.6594 46.8435 42.8596C46.8435 45.0599 45.0599 46.8435 42.8596 46.8435Z" fill="#FFFBDB"/>
<path d="M23.1403 15.1725C18.7399 15.1725 15.1725 18.7399 15.1725 23.1403C15.1725 27.5408 18.7399 31.1082 23.1403 31.1082C27.5408 31.1082 31.1082 27.5408 31.1082 23.1403C31.1082 18.7399 27.5408 15.1725 23.1403 15.1725ZM23.1403 27.1243C20.9402 27.1243 19.1564 25.3407 19.1564 23.1403C19.1564 20.9402 20.9402 19.1564 23.1403 19.1564C25.3407 19.1564 27.1243 20.9402 27.1243 23.1403C27.1243 25.3407 25.3405 27.1243 23.1403 27.1243Z" fill="#FFFBDB"/>
<path d="M18.4922 47.5077C17.7143 46.7298 17.7143 45.4686 18.4922 44.6907L44.6907 18.4922C45.4686 17.7143 46.7298 17.7143 47.5077 18.4922C48.2857 19.2701 48.2857 20.5313 47.5077 21.3092L21.3092 47.5077C20.5313 48.2857 19.2701 48.2857 18.4922 47.5077Z" fill="#FFFBDB"/>
</g>
<defs>
<clipPath id="clip0_29_567">
<rect width="66" height="66" fill="white"/>
</clipPath>
</defs>
</svg>
